<svg role="img" aria-label="Web Full Contact" xmlns="http://www.w3.org/2000/svg" viewBox="99.0 31.5 830.0 830.0"><path fill="#1b9682" d="m677.43 50.725 3.22-.03h3.44c1.18 0 2.35 0 3.57-.01 2.49 0 4.97-.01 7.46 0 3.8 0 7.6-.02 11.4-.05h7.26l3.44-.03c5.72.04 9.81.22 14.78 3.39 2.17.59 2.17.59 4.19.94 3.64.72 6.92 1.83 10.37 3.19 4.76 1.81 8.38 2.26 13.44 1.87v2c.91.11 1.82.21 2.75.32 3.25.68 3.25.68 7.25 3.68 2.31.17 2.31.17 14 1l1 6c4.87 1.6 8.81 2.22 14 2l1 4 6 1 1 2c.72.4 1.44.79 2.19 1.19 3.05 1.97 5.28 4.22 7.81 6.81 4.14 3.92 7.54 4.89 13 6v2c.83.17.83.17 5 1l1 3 2 1 1 3c.29.12.29.12 1.75.69 2.82 1.65 4.25 3.75 6.25 6.31 2.25 1.82 2.25 1.82 4 3v2l3 1 1 4 3 1v2l4 1c.21.69.41 1.38.62 2.09l.82 2.73c.13.44.13.44.81 2.7.55 1.84 1.14 3.66 1.75 5.48h2c4.58 4.75 10 11.03 10 18l3 1 2 5h2c.78 3.41 1.1 6.51 1 10l4 1v2h2c3 12 3 12 3.51 14.29.49 1.71.49 1.71 1.87 3.46 3.89 5.4 4.85 10.54 4.6 17.08.03 3.26.98 6.11 2.02 9.17l1 3-2 3h2c9.06 40.52 9.06 40.52 2.09 54.46-4.13 9.68-4.42 21.44-4.8 31.83-.2 5.54-.2 5.54-1.29 7.71h-3c-.59 4.38-1.14 8.58-1 13l-2 3c-.39 2.33-.73 4.66-1 7l-1.81 1.69c-4.27 4.51-5.58 8.13-6.19 14.31l-4 2v5c-.95.44-1.9.87-2.87 1.32-3.13 1.68-3.13 1.68-5.13 4.68h-3l1 8c-.33.17-.33.17-2 1l-1 4c-.33.17-.33.17-2 1l-1 3h-4l-1 5-4 2c-.49 1.65-.49 1.65-3 10l-6 2-2-1v5l-6 2-2 7-7 5-1 3-9 3v2l-4 1 1 5-1 2c-8.42-2.2-13.82-8.28-19-15-.7-1.31-1.38-2.64-2-4-.59-.27-1.18-.55-1.79-.83-6.78-3.58-14.77-10.85-17.21-18.17-.57-.24-1.14-.49-1.73-.74-2.65-1.47-4.41-3.19-6.53-5.35-.79-.8-1.58-1.61-2.39-2.43-.82-.84-1.63-1.68-2.47-2.54-1.63-1.66-3.26-3.32-4.89-4.97l-2.17-2.23c-1.82-1.74-1.82-1.74-3.82-2.74l-1-5 5-3v3h3l-1-4c3.11-3.28 6.02-5.83 10-8l1-4 3-1 2-4h3c.2-.36.2-.36 1.19-2.18 1.96-3.04 4.26-5.26 6.81-7.82 1.31-2.31 1.31-2.31 2-4h3v-5l3-2 1-3h4l1-4h3v-7c.61-.5 1.21-1.01 1.84-1.53 2.66-3.03 3.62-6.11 4.72-9.9 1.35-4.54 2.8-8.59 5.44-12.57h2v2l2-1v-2l-3-1c1-4 1-4 2-5 .03-.66.05-1.33.08-2.02.11-3.1.24-6.19.36-9.29l.12-3.19c.2-4.99.47-9.91 1.07-14.87.66-6.85-.24-13.51-1.07-20.31-.07-.65-.07-.65-.44-3.9-1.09-9.38-1.09-9.38-2.12-10.42l-2-9-3-2-2-12-3-3h-2l-1-7h-3c-.25-.86-.49-1.73-.75-2.62-1.98-5.34-4.96-9.64-9.25-13.38l-3-1-1-2-4-2 1-6c-.68-.24-1.36-.49-2.06-.75a55 55 0 0 1-6.56-3.31c-3.38-1.94-3.38-1.94-6.38-2.94-1.69-1.64-3.35-3.31-5-5-6.64-5.77-6.8-5.06-18-6l-2-2v-1c-.77-.2-1.54-.41-2.34-.62-1-.27-2-.54-3.03-.81-1-.27-2-.54-3.03-.81-2.6-.76-2.6-.76-4.6-1.76-1.81-.2-3.62-.36-5.44-.5-3.12-.23-5.57-.5-8.56-1.5v-3c-.63.02-1.26.03-1.91.04-4.06.04-7.77.02-11.78-.72-6.92-1.03-16.57.86-22.31 4.68-5.66 1.16-11.25 1.11-17 1v2c-1.22.27-2.43.54-3.69.82-3.57.88-6.17 2.25-9.31 4.18-1.61.46-3.22.92-4.84 1.34-6.24 1.92-12.36 4.67-18.16 7.66-.37.91-.74 1.82-1.12 2.75-2.17 3.76-4.26 4.96-7.88 7.25-2.37 2.75-2.37 2.75-4 5-.49.17-.49.17-3 1l-2 3h-2l-2 4c-.38.2-.38.2-2.31 1.19-2.94 1.98-4.09 3.7-5.69 6.81h-2l-2 4h-3l-1 4-6 2-1 7-2 1c-.14.96-.28 1.92-.43 2.9-1.69 5.87-6.48 9.62-10.73 13.76l-2.75 2.72c-2.4 2.38-4.82 4.75-7.23 7.11-2.47 2.42-4.93 4.85-7.38 7.28-14.37 14.21-14.37 14.21-18.48 15.23l-1 4-3 1v2c-13.42 13.43-13.42 13.43-21 14-2.5-.43-2.5-.43-4-1l1 5c-1.29 1.32-2.58 2.63-3.87 3.94-.72.73-1.44 1.46-2.18 2.22-1.95 1.84-1.95 1.84-3.95 2.84-.25.6-.49 1.2-.75 1.82-1.41 2.47-2.9 3.62-5.25 5.18h-2l-1 4-3 1c-.39.56-.77 1.11-1.17 1.68-.52.73-1.04 1.45-1.58 2.2-.51.72-1.02 1.44-1.55 2.18-1.8 2.06-3.27 2.77-5.7 3.94l-1.94 2.94c-2.15 3.2-3.69 4.34-7.06 6.06-4.36 2.91-7.99 6.07-10 11l-4 1c-.25.75-.49 1.49-.75 2.25-1.37 3.02-2.82 4.54-5.25 6.75l-1.94 1.94-2.06 2.06c-.82.85-1.65 1.7-2.5 2.57-2.5 2.43-2.5 2.43-4.69 4-1.81 1.43-1.81 1.43-2.81 3.43-1.23 2.46-2.74 3.5-5 5h-2l-1 4-3 1c-.37.55-.75 1.09-1.14 1.65-2.9 4.06-5.23 7.17-9.86 9.35-.25.6-.49 1.2-.75 1.82-2.59 4.54-6.4 5.75-11.25 7.18-.39.91-.78 1.82-1.19 2.75-2.22 3.99-4.75 6.22-8.81 8.25-.25.75-.49 1.49-.75 2.25-1.37 3.02-2.82 4.54-5.25 6.75l-1.94 1.94-2.06 2.06c-.82.85-1.65 1.7-2.5 2.57-2.5 2.43-2.5 2.43-4.69 4-1.81 1.43-1.81 1.43-2.81 3.43-1.23 2.46-2.74 3.5-5 5h-2l-1 4-3 1c-.37.55-.75 1.09-1.14 1.65-2.9 4.06-5.23 7.17-9.86 9.35-.11.29-.11.29-.69 1.75-1.64 2.82-3.7 4.34-6.31 6.25h-2l-2 5-5 3c-.26.6-.52 1.2-.78 1.81-1.31 2.36-2.57 3.58-4.66 5.26-2.31 1.88-4.48 3.79-6.56 5.93-1.33 1.34-2.67 2.67-4 4-.82.87-1.65 1.74-2.5 2.63-2.16 2.06-3.77 3.26-6.5 4.37l-2 5c-4 3-4 3-6 3l-1 4-3 1c-.37.55-.75 1.09-1.14 1.65-2.99 4.18-5.35 6.79-9.86 9.35-1.81 2.69-1.81 2.69-3 5h-2l-1 3h-4v4l-4 1v2l-3 2-1 3h-4l-1 3-5 2v3c-.41.38-.82.75-1.25 1.13-1.75 1.87-1.75 1.87-3.75 4.87-1.56 2.34-2.93 4.14-5 6h-3l-1 5-4 1v2l-3 2-2 5-3 1v4l-3-1-1 8c-.6.27-1.2.54-1.81.82-2.19 1.18-2.19 1.18-5.19 4.18l-1 12-3 3c-1.06 1.94-1.06 1.94-2 4-.34.59-.69 1.17-1.04 1.77-1.2 2.81-1.2 4.96-1.19 8.01v3.52c.01 1.25.02 2.5.04 3.78v3.89c.01 3.4.03 6.8.05 10.2.02 3.47.03 6.94.04 10.41.02 6.81.06 13.62.1 20.42l1.43 1.37c3.91 4.07 5.82 10.44 5.88 16.01-.23 2.7-.46 5.07-1.31 7.62l5-1v8l4-1c.17 1.49.17 1.49 1 9h3v5l4-1-1 4c7 10 7 10 13 12 .17.99.17.99 1 6 .54.27 1.07.54 1.63.82 1.77.88 3.54 1.78 5.31 2.68 2.65 1.31 5.3 2.45 8.06 3.5v3h5c.18.23.18.23 1.06 1.38 2.71 2.27 5.55 2.79 8.94 3.62l1 3c.91.13 1.82.25 2.75.38 3.25.62 3.25.62 5.13 1.62 3.27 1.54 6.54 1.65 10.12 2l2 2c1.52.6 3.07 1.14 4.63 1.63.4.13.4.13 2.47.79.63.19 1.26.39 1.9.58l-1 3c32.31.21 32.31.21 47-1v-2c1.6-.33 3.21-.66 4.81-1 .9-.18 1.79-.37 2.71-.56 2.48-.44 2.48-.44 5.48-.44v-2c2.58-1.29 4.68-1.22 7.56-1.37 8.93-.71 14.83-2.61 21.44-8.63.91-.53 1.82-1.07 2.75-1.62 2.25-1.38 2.25-1.38 4.25-4.38l7-1 1-2-3-1 4-1 1-4 2-1 1-3h4v-3c6.36.27 10.45 2.54 15 7 .3.64.59 1.27.9 1.93 1.57 2.96 3.83 4.47 6.48 6.51 3.76 2.92 6.77 5.74 9.62 9.56v2l3 1v3l4 1c.56.77 1.11 1.53 1.69 2.32 2.31 2.68 2.31 2.68 4.81 4.12 3.2 2 4.48 4.4 6.5 7.56.87.85 1.73 1.7 2.63 2.57 2.37 2.44 3.36 4.22 4.37 7.43h2l3 9-5 1-1 4c-1.24 1.13-2.5 2.26-3.75 3.38-.7.63-1.39 1.25-2.11 1.9-1.98 1.6-3.82 2.69-6.14 3.72l-1 2-6 1v4h-4l1 3-7 2-2 3h-6l-1 4c-3.66 2.48-6.61 3.49-11 4v3c-.28.09-.28.09-1.69.52-12.93 4.11-12.93 4.11-17.31 8.48l-1.87-.03c-5.8-.06-11.37.29-17.13 1.03-.4.43-.8.85-1.21 1.28l-1.6 1.66c-.52.55-1.05 1.09-1.58 1.65-2.99 2.63-6.07 2.56-9.87 2.66-1.04.03-2.08.07-3.14.1-2.17.06-4.34.12-6.51.17-8.93.29-8.93.29-13.08 1.51-5.4 1.55-10.94 1.19-16.51 1.1l-3.36-.03c-2.71-.02-5.43-.05-8.14-.1l-1-2c-3.15-1.01-4.97-.9-8.12 0-10.49 2.31-22.62.85-32.88-2v-3c-5.63-1.52-11.08-2.47-16.87-3.06-7.87-.81-7.87-.81-10.13-1.94v-2h-2l-1-2-5 1-1-2h2v-2h-7l-3-4c-1.56-.65-3.12-1.29-4.69-1.93-.43-.18-.43-.18-2.63-1.09-2.56-.93-5-1.52-7.68-1.98-.16-.49-.16-.49-1-3-1.81-.82-1.81-.82-11-5l-4-7-9-1v-3l-4-1v-3l-4-1c-.39-.7-.78-1.4-1.19-2.12-3.24-5.14-5.89-9.01-11.81-10.88l-3-2v-4l-4-1v-4l-3 1-2-9c-1.09-.86-2.19-1.73-3.31-2.62-3.3-2.8-4.85-5.44-6.69-9.38-2.19-1.87-2.19-1.87-4-3q-.15-.825-.3-1.68c-1.5-7.66-4.58-13.73-8.7-20.32l-3-1c-3-5.75-3-5.75-3-8h-2c-.12-1.11-.24-2.22-.37-3.36-.89-7.96-1.83-15.82-3.63-23.64l-3-1c-1.37-2.74-1.37-5.38-1.62-8.41-.38-2.59-.38-2.59-1.38-5.77-1.21-4.62-1.38-8.94-1.5-13.69-.15-5.95-.68-11.38-2.09-17.16-.51-2.45-.47-4.55-.16-7.03.11-.9.21-1.81.32-2.74.15-1.05.29-2.11.43-3.2.18-1.41.35-2.83.52-4.25 1.43-11.69 1.43-11.69 2.48-12.75 2.39-21.6 2.39-21.6 2-31l4-2c.05-.6.1-1.2.15-1.82.07-.8.15-1.6.23-2.43.07-.78.13-1.57.21-2.39.43-2.46 1.28-4.14 2.41-6.36.41-2.14.41-2.14.63-4.25.12-1.23.24-2.47.37-3.75l3-1c.19-.61.39-1.23.59-1.86.26-.81.52-1.62.79-2.45.25-.8.51-1.6.77-2.42.85-2.27.85-2.27 2.85-5.27.39-2.32.74-4.65 1-7h3l1-6 5-1c.12-.84.25-1.69.38-2.56 1.29-7.14 3.21-11.75 7.62-17.44h2l1-3h3v-5c.74-.37 1.49-.74 2.25-1.12 3.28-2.23 4.65-4.53 6.75-7.88 1.62-2.04 3.3-4.01 5-6h2l1-3 7-1 1-4 3-1c.29-.57.58-1.15.88-1.75 1.37-2.75 2.75-5.5 4.12-8.25h7l.75-1.75c1.42-2.55 3.13-4.26 5.25-6.25.08-.55.17-1.11.25-1.68.99-3.04 2.64-4.94 4.75-7.32l2-1 1-4 6-1 1-6c.47-.45.95-.9 1.44-1.37 1.56-1.63 1.56-1.63 2.56-3.63h3l2-4h2c.27-.59.54-1.19.81-1.81 1.9-3.5 3.39-4.92 7.19-6.19 1.02-.97 2.02-1.98 3-3l3-2 2-3 4-1 2-4h2l2-4 5-1 1-3 6-4 1-5h2l1-4 4-2 1-4 5-1c.39-.88.78-1.77 1.19-2.68 1.9-3.48 3.92-5.63 6.81-8.32.76-.76 1.53-1.52 2.31-2.31.56-.55 1.12-1.11 1.69-1.69h2l2-5c1.27-.98 2.54-1.96 3.81-2.93.36-.28.36-.28 2.15-1.66 2.04-1.41 2.04-1.41 5.04-2.41l2-5h3l1-3 3-1 2-5h6l.75-1.75c1.42-2.55 3.13-4.26 5.25-6.25l1-4h2l1-4 6-6h5v-5c3.37-4.31 6.98-7.79 11.15-11.33 1.85-1.67 1.85-1.67 3.98-4.35 2.96-3.66 6.43-5.83 10.87-7.32l2-5h3v-3l4-1 2-4 5-1 1-3 6-4 1-5h2l2-4 5-1 1-4 4-1v-6c.5-.33.5-.33 3-2l1-3c.76-.43 1.53-.86 2.31-1.31 2.27-1.42 3.91-2.72 5.69-4.69h6l-3-1v-2l4-2 3-6h2v-2h3c.29-.59.58-1.19.88-1.81 1.12-2.19 1.12-2.19 3.12-5.19.39-2.32.74-4.65 1-7 2.18-2.21 4.37-4.41 6.56-6.62.31-.31.31-.31 1.85-1.87 3.57-3.59 7.21-6.98 11.11-10.2 2.13-1.88 3.76-4.07 5.48-6.31 1.66-1.67 3.33-3.34 5-5 1.01-1.02 2.02-2.04 3.03-3.07 2.97-3.02 5.94-6.04 8.93-9.05 1.27-1.29 2.55-2.59 3.82-3.89 1.86-1.89 3.72-3.77 5.59-5.65.56-.57 1.12-1.15 1.7-1.74 4.66-4.66 9.75-8.93 16.62-9.28 2.9-.18 5.51-.54 8.31-1.32.1-.33.1-.33.63-2 2.69-5.86 6.84-10.47 11.37-15l1-3h5v-6c.5-.33.5-.33 3-2l1-3 6-2 1-3 6-1 1-6c.62-.26 1.24-.53 1.88-.81 2.12-1.19 2.12-1.19 4.12-4.19h3l1-4c11-7 11-7 14-7l1 2 2-3h3c.29-.59.58-1.19.88-1.81 2.9-5.65 6.37-6.96 12.12-9.19 2.37-.53 4.57-.79 7-1 .54-.59 1.07-1.19 1.63-1.81 4.57-4.22 9.33-5.47 15.27-6.65 2.71-.69 4.76-2.04 7.1-3.54 3.6-1.01 6.9-.99 10.62-.83 8.15.33 13.33-.87 20.38-5.17 3.62-1.67 6.45-2.25 10.43-2.27"/><path fill="#46bfaf" d="M623 168h2c-1.6 4.27-4.86 6.82-8.19 9.75-4.34 3.9-8.32 7.84-12.07 12.32-2.86 3.17-6.09 5.92-9.29 8.74-9.27 8.29-9.27 8.29-10.45 14.19.74.72 1.49 1.44 2.25 2.19 2.75 2.81 2.75 2.81 4.56 5.19 1.79 2.14 3.4 3.72 5.5 5.5 6.36 5.42 12.13 11.48 18 17.41 2.22 2.25 4.46 4.48 6.69 6.71v2l1.79.79c2.33 1.27 3.81 2.61 5.65 4.52.55.58 1.11 1.15 1.68 1.74.62.64 1.24 1.29 1.88 1.95l5 5 2.88 2.88 1.55 1.55L698 326v2c.57.24 1.13.48 1.72.73 2.75 1.53 4.61 3.38 6.83 5.62.84.85 1.69 1.7 2.56 2.58.87.89 1.74 1.78 2.64 2.69l2.69 2.72c6.56 6.63 6.56 6.63 6.56 8.66.28.11.28.11 1.69.69 2.94 1.67 4.99 3.86 7.31 6.31v2c.29.12.29.12 1.75.75 2.55 1.42 4.27 3.13 6.25 5.25v2c.29.11.29.11 1.75.69 2.82 1.64 4.33 3.71 6.25 6.31h5c.68-.87 1.36-1.73 2.06-2.62 2.45-2.95 5.13-5.38 8.1-7.79 2.41-2.08 4.6-4.33 6.84-6.59 1.23-1.22 2.47-2.44 3.7-3.66l3.99-3.96c.67-.67 1.35-1.34 2.05-2.03.64-.64 1.29-1.29 1.96-1.95.59-.58 1.17-1.16 1.78-1.76C783 343 783 343 785 340h2l.79-1.7c1.34-2.54 2.9-4.78 4.59-7.11 2.1-2.96 4.1-5.89 5.87-9.07 1.75-3.12 1.75-3.12 3.31-5.06 2.15-3.08 3.21-6.54 4.44-10.06.71-1.98 1.41-3.96 2.12-5.94.34-.93.67-1.87 1.01-2.84C810 296 810 296 811 295c.19-1.11.39-2.22.59-3.36.26-1.46.52-2.93.79-4.39.06-.36.06-.36.38-2.21.66-3.63 1.31-6.86 3.24-10.04h1c.43 6.44-1.17 11.86-3 18-.31 1.18-.62 2.35-.94 3.56-3.81 12.35-9.79 27.28-19.06 36.44l-1 3a139 139 0 0 1-5 5h-2c-.27.58-.53 1.16-.8 1.76-3.33 6.24-8.9 11-14.22 15.52-4.18 3.63-8.07 7.52-11.54 11.84-2.61 3.08-5.28 5.38-8.44 7.88h-2v2l4 2v2q.855.375 1.74.75c2.6 1.44 4.33 3.09 6.41 5.21.39.39.39.39 2.36 2.37.8.82 1.6 1.64 2.43 2.48.8.81 1.59 1.62 2.42 2.45l4.62 4.68c2.32 2.37 4.67 4.72 7.02 7.06 5 5 5 5 5 7 .59.28 1.18.55 1.79.84 7.47 3.94 14.72 11.5 18.21 19.16l4 2v2l1.88.88C813 442 813 442 815 444h4c1.04-1.19 2.08-2.37 3.12-3.56.65-.73 1.29-1.47 1.95-2.22a190 190 0 0 0 3.45-4.06c2.46-2.99 4.96-5.66 7.92-8.16 10.77-9.17 21.13-19.62 29.56-31h2c.25-.7.5-1.4.75-2.12 1.41-3.25 3.23-5.98 5.25-8.88h2c.27-.73.55-1.46.83-2.21 1.11-2.66 2.39-4.92 3.92-7.35 2.85-4.67 5.34-9.45 7.74-14.37 1.01-2.05 2.03-4.08 3.08-6.11 3.36-6.52 6.06-13.03 8.43-19.96.75-2.06 1.5-4.13 2.25-6.19.34-.92.67-1.84 1.02-2.79C903 323 903 323 905 322c0 6 0 6-1.31 7.94-1.38 2.49-2.26 4.57-3.13 7.25-4.9 15.19-12.79 28.92-20.56 42.81l-2 1c-.38.74-.75 1.47-1.14 2.23-2.79 5.33-5.26 9.85-9.86 13.77h-2l-1 4h-2c-.25.56-.5 1.11-.75 1.69-1.47 2.71-3.28 4.95-5.25 7.31h-2l-2 4h-2c-.25.58-.5 1.15-.75 1.75-1.42 2.55-3.13 4.27-5.25 6.25h-2c-.12.29-.12.29-.74 1.73-1.48 2.67-3.22 4.46-5.39 6.6-.81.8-1.61 1.6-2.44 2.42-.85.82-1.69 1.65-2.55 2.5l-2.58 2.55c-2.1 2.07-4.2 4.14-6.3 6.2l-1 4c4.95 5.83 10.17 11.27 15.62 16.62 8.19 8.05 8.19 8.05 11.2 11.74 1.75 2.12 3.27 3.68 5.43 5.33 4.18 3.44 7.39 7.59 10.73 11.82 1.6 1.97 3.19 3.75 5.02 5.49v2l3 1c.37.82.74 1.65 1.12 2.5 1.47 2.74 2.87 4.89 4.76 7.31 2.73 3.55 4.92 7.22 7.03 11.17.84 1.55 1.73 3.08 2.65 4.58 4.57 7.75 8.12 16.09 11.44 24.44.33.8.66 1.6 1 2.43 1.97 4.81 3.63 9.55 5 14.57.5 1.35 1 2.71 1.5 4.06 1.77 5.16 2.35 10.4 2.97 15.8.53 3.14.53 3.14 1.51 5.05 10.43 21.38 5.09 58.61-1.28 80.55-.71 2.58-1.26 5.16-1.76 7.79-1.52 7.94-4.1 15.48-6.88 23.06-1.78 4.87-3.45 9.76-5.06 14.69l-2 1c-.43 1.18-.87 2.35-1.31 3.56-4.19 11.09-4.19 11.09-7.69 14.44-1.19 2.69-1.19 2.69-2 5h-2c-.25.68-.5 1.36-.75 2.06-1.49 3.51-3.32 6.66-5.25 9.94h-2l-2 5h-2c-.25.7-.5 1.4-.75 2.12-1.41 3.25-3.23 5.98-5.25 8.88h-2l-1 4c-.45.38-.89.75-1.36 1.14-4.49 3.8-8.65 7.8-12.74 12.03-4.08 4.17-7.91 7.75-12.9 10.83-1.41 1.01-2.8 2.03-4.19 3.06-.65.49-1.3.97-1.98 1.48-1.83 1.46-1.83 1.46-3.28 2.98-1.9 1.82-3.91 2.92-6.24 4.17-.4.22-.4.22-2.45 1.32-.61.33-1.23.65-1.86.99l-1 2-7 1-1 3c-6 3-6 3-8.07 4.02-.7.34-1.4.69-2.12 1.04-.65.32-1.3.64-1.98.98C790 827 790 827 787 829c-2 .68-4 1.34-6 2-1.57.64-3.13 1.29-4.69 1.94-4.57 1.86-9.17 3.18-13.96 4.35C760 838 760 838 757 840c-1.97.4-3.95.72-5.94 1-5.65.78-5.65.78-7.98 2-2.23 1.07-3.89 1.36-6.35 1.56-.8.08-1.61.15-2.44.23-.84.07-1.68.14-2.54.21-4.63.39-8.98.78-13.46 2.04-6.09 1.64-12.41 1.3-18.67 1.27h-2.01c-9.49-.02-18.58-.68-27.88-2.58-4.45-.87-8.82-1.21-13.35-1.42-2.38-.31-2.38-.31-4.28-1.27-2.88-1.43-5.67-1.72-8.85-2.16-1.17-.17-2.34-.34-3.55-.51-.89-.12-1.78-.25-2.7-.37l-2-2-9-2-2-2a68 68 0 0 0-4.62-1.38c-4.07-1.15-7.63-2.6-11.35-4.57-3.6-1.86-7.32-3.44-11.03-5.05v-2c-.71-.1-1.43-.19-2.16-.29-3.28-.82-5.41-2.15-8.22-4.02-3.12-2.06-6.21-4.08-9.5-5.88-2.99-1.73-5.43-3.64-8.12-5.81-3.01-2.24-6.04-4.46-9.06-6.68-2.91-2.29-5.39-4.66-7.94-7.32v-2l-4-2v-2l-4-2v-2l-4-2v-2c-.57-.24-1.14-.49-1.73-.74-2.65-1.47-4.42-3.21-6.52-5.38l-2.14-2.2C528 767 528 767 528 765l-4-2v-2l-4-2v-2c-.57-.24-1.14-.49-1.73-.74-2.65-1.47-4.42-3.21-6.52-5.38l-2.14-2.2C508 747 508 747 508 745l-4-2v-2l-4-2v-2c-.58-.25-1.15-.5-1.75-.75-2.55-1.42-4.27-3.13-6.25-5.25v-2l-4-2v-2l-4-2v-2l-4-2v-2l-3-1a139 139 0 0 1-5-5l-2.31-2.31L468 707v-2l-4-2v-2l-4-2v-2l-4-2v-2c-.57-.24-1.14-.49-1.73-.74-2.65-1.47-4.42-3.21-6.52-5.38l-2.14-2.2C444 683 444 683 444 681l-4-2v-2l-4-2v-2l-4-2v-2c-.29-.13-.29-.13-1.76-.77-2.49-1.37-4.14-2.9-6.13-4.93-.71-.71-1.42-1.43-2.15-2.16-.73-.75-1.46-1.5-2.21-2.26-.37-.38-.37-.38-2.26-2.29-5.49-5.56-5.49-5.56-5.49-7.59l-4-2v-2l-4-2v-2l-4-2v-2l-4-2v-2l-4-2v-2c-.57-.24-1.14-.49-1.73-.74-2.65-1.47-4.42-3.21-6.52-5.38l-2.14-2.2C380 619 380 619 380 617l-4-2v-2l-4-2v-2l-4-2v-2c-.27-.1-.27-.1-1.61-.62-3.42-1.98-5.9-4.68-8.64-7.5-.55-.57-1.11-1.13-1.68-1.71-4.07-4.14-4.07-4.14-4.07-6.17l-3-1c-1.73-1.63-3.36-3.29-5-5-1.43-1.44-2.87-2.88-4.31-4.31L336 575v-2c-.53-.2-1.06-.41-1.61-.62-3.42-1.98-5.9-4.68-8.64-7.5-.55-.57-1.11-1.13-1.68-1.71-4.07-4.14-4.07-4.14-4.07-6.17l-4-2v-2c-.29-.13-.29-.13-1.77-.77-2.44-1.35-4.05-2.85-5.98-4.85-.61-.64-1.23-1.27-1.86-1.92-.46-.48-.92-.96-1.39-1.46 1-4 1-4 5-8h2c.11-.29.11-.29.69-1.75 1.64-2.82 3.74-4.25 6.31-6.25 1.81-2.25 1.81-2.25 3-4h2l2-4h2l1-3c1.63-1.71 3.29-3.38 5-5h2l2-4h2c.25-.58.5-1.15.75-1.75 1.42-2.55 3.13-4.27 5.25-6.25h2l2-4h2l2-4h2l2-4h2l2-4h2l2-4h2l1-4 6-1 208.68 208.68c1.59 1.59 3.18 3.18 4.78 4.77 2.24 2.25 4.48 4.51 6.71 6.77 2.15 2.18 4.3 4.34 6.45 6.51 1.12 1.13 2.25 2.27 3.37 3.41 6.03 6.12 11.91 11.96 19.01 16.86v2l4 1c.43.45.87.91 1.31 1.38C631 728 631 728 634 730v2l6 1 3 3 5 1 1 2c6.63 2.28 13.31 4.25 20.06 6.13C672 746 672 746 674 747c7.44 1.12 14.86 1.19 22.37 1.19 2.06 0 4.12.02 6.17.03 7.4.04 14.28-.41 21.46-2.22.59-.12.59-.12 3.57-.75 7.35-1.63 13.53-3.55 20.05-7.31 2.78-1.6 5.42-2.76 8.38-3.94l2-2c1.66-.67 3.33-1.34 5-2 3.04-1.59 5.12-3.12 7.56-5.56 2.15-2.15 3.67-3.31 6.44-4.44l1-3c.89-.68 1.77-1.36 2.69-2.06 2.95-2.45 4.96-5.09 7.1-8.25 1.79-2.5 4.04-4.52 6.21-6.69 7.46-9.34 13.16-21.41 16-33 .33-.91.66-1.82 1-2.75 1.2-3.91 1.87-7.83 2.54-11.86C814 650 814 650 815 648c.21-4.33.19-8.67.19-13.01 0-2.15.02-4.3.03-6.45.01-1.38.01-2.76.01-4.15 0-1.24.01-2.49.01-3.78-.25-3.79-1.1-7-2.24-10.61-.34-1.99-.66-4-.94-6-.76-4.76-1.96-8.63-4.06-13-.61-1.58-1.21-3.16-1.81-4.75-3.65-9.09-8.49-17-14.46-24.74-1.69-2.45-2.75-4.71-3.73-7.51l-1.79-.76c-2.49-1.39-3.83-2.86-5.65-5.05-2.73-3.23-5.53-6.25-8.56-9.19v-2c-.58-.25-1.16-.51-1.76-.77-2.49-1.37-4.14-2.9-6.13-4.93-.71-.71-1.42-1.43-2.15-2.16-.73-.75-1.46-1.5-2.21-2.26l-2.26-2.29C752 519.03 752 519.03 752 517c-6 2-6 2-7.14 3.39-3.05 3.66-6.1 6.66-9.86 9.61-1.81 2.25-1.81 2.25-3 4l-2-1 1.76-1.94c4.48-4.97 8.91-9.96 13.24-15.06l4-1c-2.69-2.77-5.4-5.36-8.38-7.81-3.37-2.84-6.15-6.02-9-9.38-2-2.23-4.28-3.95-6.62-5.81-1-1.13-1.98-2.28-2.94-3.44-1.92-2.31-3.65-4.05-6-6-3.19-2.67-5.72-5.56-8.41-8.72C706 472 706 472 703.5 470c-2.32-1.85-4.02-3.69-5.94-5.94-2.12-2.49-4.19-4.71-6.75-6.75-2.71-2.23-4.72-4.5-6.81-7.31l-4-1c-3.35 2.63-6.28 5.21-9 8.5-2.7 3.26-5.74 5.79-9 8.5-1.02 1.15-2.02 2.32-3 3.5-1.9 2.3-3.61 4-5.94 5.94-3.8 3.18-6.88 6.77-10.06 10.56h-2l-1 3c-.87.68-1.73 1.36-2.62 2.06-2.39 1.98-4.4 4.05-6.38 6.44-2.72 3.29-5.65 5.87-9 8.5l-2-1c2.55-2.62 5.02-5.02 7.88-7.31 3.15-2.58 5.69-5.55 8.33-8.64 3.64-4.17 7.5-8 11.79-11.49 3.15-2.68 5.67-5.58 8.35-8.72 2.01-2.24 4.3-3.96 6.65-5.84 2.42-2.59 4.71-5.29 7-8 1.15-1.33 2.29-2.67 3.44-4 2.56-3 2.56-3 2.56-8l-2.58-2.58-24.85-24.85c-1.46-1.46-2.93-2.92-4.39-4.38-1.32-1.33-2.64-2.66-3.95-4-2.85-2.9-5.73-5.66-8.85-8.25-3.21-2.69-5.7-5.73-8.38-8.94-1.15-1.02-2.32-2.02-3.5-3-3.3-2.73-5.81-5.67-8.5-9-2.56-2.69-5.12-5.1-8-7.44-3.08-2.63-5.45-5.42-8-8.56-2.56-2.69-5.12-5.1-8-7.44-3.07-2.62-5.42-5.46-8-8.56-.97-.8-1.94-1.61-2.94-2.44-2.36-1.97-4.08-3.67-6-6-2.55-3.08-5.33-5.55-8.41-8.1-2.51-2.22-4.5-4.88-6.65-7.46-1.11-.98-2.23-1.94-3.38-2.88-3.39-2.8-6.15-5.95-9-9.31-1.99-2.23-4.27-3.96-6.62-5.81-.8-.97-1.61-1.94-2.44-2.94-2.17-2.59-4.32-4.54-6.94-6.64-4.34-3.8-8.23-8.15-10.62-13.42l-4-1c.37-.37.37-.37 2.27-2.23.99-.99 1.99-1.97 2.98-2.96l1.49-1.46c2.98-2.96 5.69-6.01 8.26-9.35h2v-2l3-2 1-3c.8-.48 1.6-.95 2.42-1.44 4.82-3.22 8.74-7.43 12.81-11.52.87-.88 1.74-1.75 2.64-2.64 1.84-1.84 3.68-3.68 5.51-5.52 2.8-2.81 5.62-5.61 8.43-8.42 1.79-1.78 3.57-3.57 5.36-5.36.84-.84 1.68-1.68 2.55-2.54.78-.79 1.56-1.57 2.36-2.38.69-.69 1.37-1.38 2.08-2.09 1.96-2.22 3.39-4.51 4.84-7.09h2l2-4h2l2-4h2l2-4h2l.79-1.79c1.27-2.33 2.61-3.81 4.52-5.65l1.89-1.83c.6-.57 1.19-1.14 1.8-1.73l2.56-2.62c2.69-2.63 5.55-4.98 8.44-7.38 1.69-1.65 3.36-3.31 5-5zM330.063 44.75l2.8-.03c5.43.03 10.4.61 15.7 1.79 4.74.96 9.57 1.24 14.38 1.61 4.97.46 9.31 1.45 13.99 3.21 2.17.71 4.17 1 6.44 1.23 3.63.44 3.63.44 6.63 2.44 2.01.53 2.01.53 4.25.94 4.25.88 7.8 2.24 11.75 4.06.91.35 1.81.7 2.75 1.06 2.25.94 2.25.94 5.25 2.94l3.06 1c2.94 1 2.94 1 4.94 3 .86.29 1.73.58 2.62.87 4.02 1.34 7.64 3.17 11.38 5.13v2l5 1 1 2c.93.27 1.85.54 2.81.81 3.18 1.19 3.93 1.88 6.19 4.19 1.54 1.11 3.11 2.19 4.68 3.25 4.75 3.27 9.07 6.85 13.32 10.75v2c.56.24 1.12.49 1.7.74 2.72 1.49 4.76 3.3 7.05 5.39a402 402 0 0 1 4.25 3.87v2c.55.22 1.1.45 1.66.68 3.04 1.72 5.3 4.01 7.72 6.48.51.5 1.01 1 1.53 1.52 1.05 1.06 2.11 2.12 3.16 3.19 1.61 1.63 3.24 3.25 4.86 4.88 1.03 1.03 2.05 2.06 3.08 3.09.48.49.97.98 1.47 1.48 3.4 3.45 3.4 3.45 4.52 5.68l6 1c.24-.57.49-1.14.74-1.73 1.47-2.65 3.21-4.42 5.38-6.52l2.2-2.14c1.68-1.61 1.68-1.61 3.68-1.61.12-.29.12-.29.75-1.75 1.41-2.55 3.12-4.27 5.25-6.25h2l2-4h2l2-4h2l2-4h2l2-4 4-2-2 4h-2l-1 3c-.48.4-.97.8-1.46 1.21-.64.53-1.27 1.06-1.92 1.6-.62.52-1.25 1.05-1.9 1.58-1.72 1.61-1.72 1.61-3.72 4.61h-2l-1 3c-.45.38-.9.75-1.36 1.14-4.5 3.81-8.9 7.6-12.52 12.3-3.7 4.46-7.84 8.11-13.12 10.56-.26.6-.52 1.2-.79 1.81-1.31 2.36-2.53 3.52-4.61 5.21-5.75 4.88-10.99 10.26-16.29 15.61-1.03 1.03-2.06 2.06-3.09 3.1l-5.67 5.7c-1.76 1.77-3.52 3.53-5.28 5.29-1.8 1.81-3.47 3.61-5.09 5.59-.36.45-.36.45-2.18 2.69h-2l-1 3c-.46.39-.93.78-1.4 1.18-15.86 13.61-15.86 13.61-17.6 18.82-.45.36-.9.73-1.36 1.1-4.04 3.37-7.35 6.8-10.64 10.9-1.32 1.35-2.64 2.69-4 4l-2-1c.49-.66.49-.66 3-4h2l.77-1.73c1.36-2.51 2.95-4.4 4.85-6.52.32-.35.32-.35 1.92-2.14l1.46-1.61h2c-2.06-3.73-4.32-6.54-7.38-9.5-.75-.73-1.5-1.46-2.27-2.22-.78-.75-1.55-1.5-2.35-2.28-2.85-2.83-5.67-5.67-8.49-8.52-24.71-24.93-24.71-24.93-37.51-29.48l-2-3c-.81-.27-1.61-.54-2.44-.81-1.18-.39-2.35-.79-3.56-1.19-.36-.11-.36-.11-2.19-.7-3.44-1.1-6.61-2.19-9.81-3.86-3.93-1.89-7.73-2.66-12-3.44-.89-.19-1.78-.37-2.7-.57-12.38-2.31-34.77-5.25-46.22.54-2.73 1.35-5.33 1.7-8.33 2.16-1.08.16-2.16.33-3.27.5-.82.12-1.64.25-2.48.37l-2 2c-1.89.71-1.89.71-4.13 1.37-3.9 1.24-7.39 2.82-11.01 4.71-2.54 1.25-5.16 2.11-7.86 2.92l-1 3c-1.75 1.13-3.5 2.25-5.25 3.37-.98.63-1.95 1.26-2.96 1.9-2.23 1.38-4.42 2.61-6.79 3.73l-2 4h-2l-2 4h-2c-.28.59-.55 1.18-.84 1.79-1.11 2.1-2.31 3.79-3.79 5.65-8.28 10.86-14.66 22.77-19.37 35.56l-.73 1.92c-2.21 6.11-3.19 12.14-3.96 18.58-.13.98-.26 1.96-.39 2.97-1.22 9.7-.95 18.93-.11 28.66l.21 2.87c.49 5.66 1.53 9.89 3.98 15 .62 2.41.62 2.41 1 4.5 1.53 7.34 4.96 13.4 8.58 19.91 1.09 2 2.12 4.04 3.1 6.09 1.28 2.43 2.4 3.6 4.32 5.5 1.28 1.57 2.55 3.15 3.81 4.75 4.8 6.04 9.65 11.87 15.19 17.25-1 4-1 4-3.13 6.06-2.02 2.02-3.87 4.11-5.69 6.31-2.84 3.38-6.02 6.16-9.37 9.01-2.23 2-3.95 4.28-5.81 6.62-1.72 1.56-3.49 3.04-5.27 4.53-3.19 2.71-6.05 5.58-8.61 8.91-2.25 2.72-4.68 4.83-7.39 7.09-3.19 2.71-6.05 5.58-8.61 8.91-2.28 2.76-4.76 4.89-7.54 7.13-1.58 1.43-1.58 1.43-3.58 4.43h-5l-2-4c-.29-.12-.29-.12-1.75-.75-2.55-1.42-4.27-3.13-6.25-5.25v-2c-.57-.23-1.14-.45-1.73-.68-2.92-1.69-4.49-3.74-6.59-6.38-.78-.99-1.56-1.97-2.37-2.98-.76-.98-1.53-1.95-2.31-2.96-.66-.84-1.32-1.68-2-2.55-1.18-1.51-2.35-3.02-3.51-4.54-1.17-1.5-2.39-2.96-3.62-4.41-2.22-2.97-3.94-6.08-5.7-9.34-1.32-2.43-2.73-4.8-4.17-7.16v-3l-3-1-2-7-2-1c-.41-1.13-.83-2.27-1.25-3.44-1.13-3.03-2.38-5.95-3.75-8.87-1.99-4.35-3.18-8.76-4.29-13.4-.71-2.29-.71-2.29-2.71-4.29-.12-.82-.24-1.64-.37-2.48-.17-1.08-.33-2.16-.51-3.27-.16-1.07-.32-2.13-.49-3.23-.63-3.02-.63-3.02-1.64-4.91-1.51-3.2-1.65-6.57-1.99-10.05-.74-7.42-.74-7.42-2-10.48-1.05-2.69-1.4-4.91-1.64-7.78-.08-.98-.16-1.97-.25-2.98-.08-1.01-.16-2.02-.24-3.07-.08-1-.17-2-.26-3.03-.78-9.44-.7-18.54.2-27.97.09-.92.17-1.84.26-2.79.64-6.19 1.7-12.12 3.27-18.15.84-3.59 1.15-7.12 1.35-10.79.31-2.02.31-2.02 2.31-5.02.37-1.91.68-3.83.94-5.75.94-6.15 2.68-10.62 5.56-16.12 1.2-2.51 2.09-4.81 2.94-7.44 3.25-10.1 8.23-19.55 13.56-28.69h2l1-6 3-1 .79-2.16c3.01-7.08 7.42-13.75 13.21-18.84h2c.16-.66.16-.66 1-4 .71-.71 1.43-1.43 2.17-2.16 1.82-1.83 3.63-3.65 5.44-5.49 5.29-5.34 10.63-10.52 16.39-15.35.3-.25.3-.25 1.82-1.54 4.14-3.46 4.14-3.46 6.18-3.46l1-3 6-2v-2c.6-.27 1.19-.54 1.81-.81 2.16-1.17 3.55-2.38 5.19-4.19h4l1-3 5-1c.16-.5.16-.5 1-3 .99-.41 1.98-.83 3-1.25 2.67-1.14 5.28-2.37 7.87-3.69 6.89-3.47 13.6-6.36 21.06-8.35 2.07-.71 2.07-.71 4.07-2.71.68-.12 1.37-.24 2.08-.37.9-.16 1.8-.33 2.73-.5.89-.17 1.79-.33 2.71-.5 2.48-.63 2.48-.63 5.48-2.63 1.96-.4 3.95-.72 5.94-1 5.65-.78 5.65-.78 7.95-2 2.35-1.11 4.13-1.36 6.71-1.56.87-.08 1.75-.15 2.66-.23.92-.07 1.85-.14 2.8-.21 11.29-.94 11.29-.94 16.38-2.13 5.51-1.11 11.02-1.09 16.62-1.12"/><path fill="#1b9682" d="M685 450v2l3 1c2.68 2.47 5.03 5.03 7.31 7.88 2.62 3.21 5.68 5.77 8.83 8.45 2.25 2.02 4.02 4.28 5.86 6.67l3 2v2l4 2v2l4 2v2l4 2v2c.58.25 1.15.5 1.75.75 2.55 1.42 4.27 3.13 6.25 5.25v2l4 2v2l3 1c4.92 4.69 4.92 4.69 6 9l-4 4h-4l-1 4c-2.85 2.93-5.65 5.64-9 8h-2v4h-4l-1 4c-.33.16-.33.16-2 1l-1 3c-1.05.72-2.1 1.44-3.19 2.19-2.46 1.74-4.41 3.41-6.56 5.56C706 552 706 552 703 553l-1 5h-4l-1 3c-.78.29-1.57.58-2.38.88C692 563 692 563 690 565l-1 5-3 1-1 3c-2.21 2.43-4.25 4.17-7 6l-1 2-3 1c-.56 1.07-1.11 2.14-1.69 3.25-1.92 3.4-4.08 5.5-7.31 7.75h-3l-1 5h-2v2c-7 6-7 6-9 6v2h-4c-.16.99-.16.99-1 6h-3v2l-4 1c-.27.6-.54 1.2-.81 1.81-1.17 2.16-2.38 3.55-4.19 5.19h-3l-1 5c-1.15.66-1.15.66-7 4l-1 4-4 1c-.27.58-.53 1.17-.8 1.77-1.23 2.29-2.6 4.03-4.32 5.98-.54.61-1.08 1.23-1.64 1.86L609 650h-2l-1 3h-3l-5-6-3-1-1-3c-1.32-.83-1.32-.83-8-5v-8h-7q-.51-.735-1.02-1.5c-.45-.64-.9-1.28-1.36-1.94l-1.33-1.93C574 623 574 623 572 622v-2h2v-2l-7-1v-3l-3 1c-.33-.83-.33-.83-2-5-2.32-1.55-4.51-2.8-7-4l-1-3-3-1-5-6c.63-6.39 1.77-10.08 6.69-14.31.76-.56 1.52-1.12 2.31-1.69l1-5h3l1-4c.5-.16.5-.16 3-1l2-2c.83-.16.83-.16 5-1l1-7 5-5 2.62-2.75C581 550 581 550 584 549l1-2v3h3l-1-6c.66-.16.66-.16 4-1v-4h3c.16-.66.16-.66 1-4 1.24-1.15 2.49-2.3 3.75-3.44.7-.64 1.39-1.27 2.11-1.93 2.13-1.62 3.53-2.21 6.14-2.63.16-.66.16-.66 1-4h3c.23-.7.45-1.4.69-2.12 1.63-3.57 3.72-5.95 6.31-8.88l5-1 1-4h3l1-3 4-1c.04-.28.04-.28.23-1.69 1.04-3.12 2.79-4.85 5.02-7.25.81-.87 1.62-1.75 2.46-2.65L642 489l1.64-1.73c1.71-1.75 3.15-3.17 5.36-4.27l3 3 2-5c-.5-.17-.5-.17-3-1l4-1v-4h3c.16-.68.33-1.36.5-2.06 2.46-4.82 6.58-8.69 11.58-10.83 1.92-.55 1.92-.55 4.92-1.11v-5l2-1c.33.17.33.17 2 1v-6c3-1 3-1 6 0"/><path fill="#3c8d7e" d="M447 208c1.23 2.46 1.07 4.28 1 7l-5 6h-3v2l-2 1-2 6-5 1v2l3-1v2l-7 1v2c-4 3-4 3-7 3l-1 4-2 1-1 6-4 1-1 4c-.93.43-1.86.87-2.81 1.31-2.66 1.41-4.27 2.45-6.19 4.69l-1 5c-4 3-4 3-6 3l-1 4-5 1-4 4h-2v3c-.5.16-.5.16-3 1l-2 5c-.89.41-1.77.82-2.69 1.25-5.7 3.02-9.46 6.94-13.6 11.79-2.13 2.44-4.38 4.7-6.71 6.96-2 2-2 2-3 7-.82.16-.82.16-5 1l-4 5h-2l-1 4c-.33.16-.33.16-2 1l-1 5c-.8.62-1.61 1.24-2.44 1.88C332 335 332 335 331 337l-6 1-2 5-3 1-1 2-3 1-2 5c-.44.2-.44.2-2.69 1.19-3.49 1.91-5.61 3.91-8.31 6.81-2.44 2.5-4.77 4.83-7.56 6.94-3.9 3.29-6.32 7.46-8.44 12.06h-5l-1 5-4 1-1 4-2 1-1 5c-4 3-4 3-6 3l-1 4-5 1c-2.67 2.49-4.56 4.63-6 8-.82.33-.82.33-5 2l-1 3-5 1-1 3c-.72.39-1.44.78-2.19 1.19-4.13 2.66-7.09 5.73-9.81 9.81h-3l-2 5h-2c-.16.99-.16.99-1 6l-6 1-1 5c-.76.68-1.53 1.36-2.31 2.06C211 453 211 453 209.5 456.5c-1.62 3.77-3.47 5.79-6.5 8.5h-7c-.27 1.07-.54 2.14-.81 3.25-1.05 3.32-1.94 5.19-4.19 7.75h-3l-1 4-7 2-1 2h-2c-.11.27-.11.27-.69 1.62-2.85 5.17-7.11 9.3-11.31 13.38h-2v5l-3 1c-1.24 1.47-2.47 2.94-3.69 4.42-1 1.21-2.03 2.4-3.06 3.58-1.64 2.62-1.82 4.95-2.25 8-.63 2.01-1.29 4.01-2 6l-5 1-1 6h-3c.12.91.25 1.82.38 2.75.07 5.97-3.58 11.17-6.38 16.25l-2 1c-.07.33-.07.33-.4 2.01-1.6 7.99-1.6 7.99-2.13 10.61-.55 2.79-1.01 5.58-1.47 8.38l-4 2c.02.9.05 1.79.07 2.72.15 10.31.23 21.39-3.07 31.26-1.18 3.57-1.74 7.11-2.19 10.83-.08.71-.17 1.41-.26 2.14-.7 6.25-.24 11.52.97 17.67.75 5.29.84 10.61 1 15.95.2 5.13.92 9.5 2.48 14.43.26 1.64.47 3.29.62 4.94.04.38.04.38.23 2.34.05.57.1 1.13.15 1.72.46.39.92.79 1.4 1.2 1.92 2.16 2.46 3.9 3.22 6.68l.73 2.55c1.2 4.75 1.77 8.97 1.71 13.88-.01 1.07-.02 2.14-.02 3.24-.02.81-.03 1.62-.04 2.45h2c3 5.75 3 5.75 3 8l4 1c1.24 2.2 2.47 4.41 3.69 6.62 1.02 1.85 2.06 3.68 3.12 5.5 1.43 3.46 1.41 6.18 1.19 9.88.6.25 1.2.5 1.81.75 3.32 1.89 4.75 4.45 6.57 7.75 1.84 2.84 3.9 4.51 6.62 6.5l2 8h2l1 4 3 1v4c2.97 1.65 5.66 2.44 9 3l2 4h2c.29.76.58 1.53.88 2.31C186 786 186 786 188 789l3 1c.33.5.33.5 2 3l3 1v2l8 1c2.25 2.69 3.88 4.65 5 8l10 4 1 4c.71-.05 1.41-.1 2.14-.16 3.4.19 5.61 1.18 8.67 2.66.98.46 1.95.93 2.96 1.41C236 818 236 818 238 821l7 1-1 3 7-1-1 3h2v2a1112 1112 0 0 1 10.12.81c.96.07 1.91.14 2.89.22 5.36.46 9.38 1.14 13.99 3.97v3c3 .34 6 .67 9 1 .84.1 1.68.19 2.54.29 7.31.79 14.2 1.16 21.46-.29.95-.19 1.9-.37 2.88-.56.7-.15 1.4-.29 2.12-.44l4 2v2c1.13-.16 2.27-.33 3.44-.5 5.48-.64 10.93-.53 16.44-.38 3.21.06 5.85-.02 8.89-1.1 5.96-1.88 12.34-1.42 18.55-1.5 1.04-.02 2.08-.05 3.15-.08.94-.01 1.88-.03 2.85-.04 5.08-.76 8.27-3.74 11.68-7.4 2.23-.17 4.46-.34 6.69-.5 1.24-.09 2.48-.19 3.76-.28 2.86-.18 5.68-.26 8.55-.22.35-.43.7-.87 1.06-1.31 4.41-3.84 12.12-6.69 17.94-6.69v-3c.63-.28 1.25-.55 1.9-.84.82-.36 1.63-.72 2.48-1.1.81-.36 1.62-.72 2.46-1.09 1.4-.63 2.79-1.28 4.16-1.97l1-3 6-1 3-4 5-1v-2h4v-4l6-1 2-4c.89-.37 1.77-.74 2.69-1.12 4.64-2.64 7.58-5.7 9.31-10.88h4l-2-9h-2c-.3-.52-.61-1.04-.92-1.57-2.63-4.39-5.29-7.94-9.08-11.43-2.17-2.17-4.32-4.34-6.44-6.56-2.4-2.29-4.66-3.87-7.56-5.44l-1-3c-1.56-1.69-1.56-1.69-3-3v-2l-3-1c-1.69-1.64-3.35-3.31-5-5a97 97 0 0 0-4-3v-2l-3-1-1-4c-.54-.25-1.07-.5-1.62-.75-2.38-1.25-2.38-1.25-5.32-3.31-2.87-1.82-4.73-2.55-8.06-2.94v3h-5l1-2h2c.13-.29.13-.29.81-1.75 1.21-2.28 2.6-4.22 4.19-6.25l5 1c.5.85.99 1.69 1.5 2.56 2.32 3.51 5.25 5.92 8.45 8.62 1.91 1.7 3.53 3.43 5.17 5.38 5.02 5.92 10.63 11.27 16.14 16.71 2.25 2.24 4.5 4.48 6.74 6.73l2.54 2.54L486 775c-1 4-1 4-2.64 5.43-.72.62-1.44 1.24-2.17 1.88-.71.62-1.42 1.23-2.15 1.87A100 100 0 0 0 474 789h-2l-1 3c-5 4-5 4-7 4l-2 4-4 1v2c-5.54 3.77-5.54 3.77-8.19 5.06-1.81.94-1.81.94-3.11 2.32-2.08 1.98-4.22 3.11-6.76 4.43-4.66 2.48-9.17 5.11-13.65 7.89-2.38 1.35-4.73 2.34-7.29 3.3-1.71.66-3.42 1.33-5.12 2-.85.33-1.7.66-2.58 1-2.3 1-2.3 1-5.3 3-2.33.68-4.66 1.34-7 2-.64.33-1.27.65-1.93.99-2.26 1.1-4.35 1.63-6.82 2.13-.8.17-1.6.34-2.42.51-.61.12-1.21.25-1.83.37l-1 1c-.57.1-.57.1-3.43.62-1.48.27-2.96.55-4.45.82-.74.13-1.49.27-2.26.41-5.63 1.04-5.63 1.04-7.86 2.15-27.89 4.21-61.81 5.41-89-3-1.46-.36-2.91-.72-4.38-1.06-3.62-.94-3.62-.94-6.74-2-2.96-.96-5.81-1.5-8.88-1.94v-2c-.61-.09-1.21-.17-1.84-.26-6.79-1.14-12.14-3.46-18.16-6.74-1.37-.69-2.75-1.38-4.12-2.06L222 818v-2c-.72-.1-1.44-.21-2.19-.31-4.19-1.03-7.25-3.32-10.81-5.69v-2c-.71-.24-1.41-.49-2.14-.74-3.26-1.43-5.82-3.26-8.67-5.38-.98-.73-1.95-1.45-2.96-2.2-.74-.55-1.47-1.11-2.23-1.68v-2l-4-1-24-24v-3c-.58-.23-1.15-.45-1.75-.69-5.55-3.24-8.79-10.04-12.25-15.31-1.12-1.69-2.25-3.38-3.38-5.06C145 743 145 743 145 740l-3-1c-.21-.5-.21-.5-1.25-3-1.14-2.67-2.37-5.28-3.69-7.88-4.74-9.38-8.8-19.12-12.06-29.12-.47-1.18-.95-2.35-1.44-3.56-2.14-5.65-3.3-11.54-4.56-17.44-.19-.82-.37-1.65-.56-2.5-1.28-5.92-2.04-11.87-2.74-17.88-.32-2.72-.66-5.41-1.22-8.09-2.34-12.24-1.45-24.63.17-36.88.39-2.95.74-5.9 1.08-8.86.26-2.09.51-4.19.77-6.29l.36-3.02q.18-1.395.36-2.82c.1-.83.2-1.66.31-2.51C118 587 118 587 120 584c.4-2.16.73-4.33 1-6.5.78-6.17.78-6.17 3-9.5.44-1.71.81-3.45 1.12-5.19.09-.45.09-.45.51-2.73L126 558h2c.23-1.28.45-2.56.69-3.88 1.03-4.67 2.85-8.55 5.08-12.76 1.06-2.04 1.99-4.05 2.85-6.17 1.27-2.94 2.69-5.49 4.38-8.19.6-1.06 1.19-2.12 1.81-3.21 7.47-13.11 16.42-26.22 27.19-36.79.96-1.09 1.9-2.19 2.81-3.31.72-.89 1.45-1.78 2.19-2.69h2l2-4h2l2-4h2l2-4h2l2-4h2l2-4h2l2-4h2l2-4h2l2-4h2l2-4h2c.23-.58.45-1.15.69-1.75 1.64-2.82 3.74-4.25 6.31-6.25 1.81-2.25 1.81-2.25 3-4h2c.23-.58.45-1.15.69-1.75 1.64-2.82 3.74-4.25 6.31-6.25 1.81-2.25 1.81-2.25 3-4h2l2-4h2l2-4h2c.23-.58.45-1.15.69-1.75 1.64-2.82 3.74-4.25 6.31-6.25 1.81-2.25 1.81-2.25 3-4h2c.23-.58.45-1.15.69-1.75 1.64-2.82 3.74-4.25 6.31-6.25 1.81-2.25 1.81-2.25 3-4h2l2-4h2l2-4h2c.23-.58.45-1.15.69-1.75 1.64-2.82 3.74-4.25 6.31-6.25 1.81-2.25 1.81-2.25 3-4h2c.21-.56.41-1.11.62-1.69 1.89-3.17 4.53-5 7.38-7.31l2-3h2l2-4h2l2-4h2c.23-.58.45-1.15.69-1.75 1.64-2.82 3.74-4.25 6.31-6.25 1.81-2.25 1.81-2.25 3-4h2l2-4h2l2-4h2l2-4h2l2-4h2l2-4h2l2-4h2l2-4h2l2-4h2c.11-.29.11-.29.69-1.75 1.64-2.82 3.74-4.25 6.31-6.25 1.81-2.25 1.81-2.25 3-4h2l2-4h2l2-4h2c.11-.29.11-.29.69-1.75 1.64-2.82 3.74-4.25 6.31-6.25 1.81-2.25 1.81-2.25 3-4h2c.11-.29.11-.29.69-1.75 1.64-2.82 3.74-4.25 6.31-6.25 1.81-2.25 1.81-2.25 3-4h2l2-4h2l2-4h2c.11-.29.11-.29.69-1.75 1.64-2.82 3.74-4.25 6.31-6.25 1.81-2.25 1.81-2.25 3-4h2c.11-.29.11-.29.69-1.75 1.64-2.82 3.74-4.25 6.31-6.25 1.81-2.25 1.81-2.25 3-4h2l2-4h2l2-4h2c.12-.29.12-.29.75-1.75 1.42-2.55 3.13-4.27 5.25-6.25h2l1-4zM710.875 47.674c4.27.65 8.58.91 12.88 1.26 6.81.6 13.26 1.53 19.86 3.41 2.17.6 4.22.96 6.45 1.22 2.94.44 2.94.44 5.94 2.44 1.57.37 3.15.67 4.75.93 3.64.68 6.81 1.56 10.18 3.14 4.01 1.79 8.16 3.22 12.27 4.74 2.8 1.19 2.8 1.19 4.8 3.19 1.09.31 2.18.61 3.31.93 3.46 1 5.69 2.12 8.69 4.07 1.07.59 2.14 1.19 3.25 1.81 4.4 2.5 8.56 5.35 12.75 8.19.52.35.52.35 3.18 2.12l8.82 5.88v2l4 1c.61.64 1.23 1.27 1.87 1.93 2.47 2.48 5.07 4.81 7.69 7.13 4.08 3.65 8.04 7.4 11.94 11.25.25.25.25.25 1.56 1.52 2.58 2.58 4.4 4.88 5.94 8.17.99.82 1.98 1.65 3 2.5 2.75 2.29 3.64 3.36 5 6.5l1.43 1.43c2.51 2.51 4.07 5.5 5.57 8.69 1 1.88 1 1.88 2.37 3.17 2.01 2.11 3.2 4.32 4.56 6.89.26.49.26.49 1.59 2.98 3.06 5.87 5.94 11.76 8.55 17.86.93 1.98.93 1.98 2.93 4.98 1 2.74 1.86 5.52 2.68 8.33 1.36 4.59 2.8 9.09 4.52 13.56 2.56 6.78 4.36 13.29 5.36 20.48l.69 4.71c.12.8.23 1.6.35 2.42.42 2.63.93 5.24 1.44 7.86 1.07 5.81 1.48 11.55 1.71 17.45l.12 3.25c.38 13.05-.42 26.1-3.41 38.82-.95 4.31-1.37 8.7-1.9 13.08-.56 3.04-.56 3.04-2.56 6.04-.38 1.9-.69 3.82-.94 5.75-.76 4.88-1.94 8.76-4.06 13.25-.78 2.06-1.55 4.12-2.32 6.18-2.48 6.51-5.48 12.64-8.68 18.82-.5.99-.99 1.98-1.5 3.01-9.61 19.13-9.61 19.13-14 23.46-1.66 1.68-2.7 3.37-3.88 5.4-2.19 3.57-4.58 6.22-7.62 9.13-1.32 1.47-2.64 2.95-3.94 4.43-5.58 6.25-11.53 12.12-17.48 18-2.21 2.18-4.4 4.37-6.58 6.57h-2l-1 3h-2c-.25.56-.49 1.12-.75 1.7-1.48 2.71-3.3 4.76-5.38 7.05-.72.8-1.45 1.59-2.19 2.42-.56.6-1.11 1.2-1.68 1.83l-5-1-1-2 4 1v-7l4-1v-2c4-3 4-3 9-3l1-4c5-4 5-4 7-4l1-7 5-2 1-3 1-2 8-1v-5c1.91-3.54 3.62-5.79 7-8l1-4h4l1-4h2l1-5h2l-1-8h3c.26-.62.53-1.24.81-1.88 1.19-2.12 1.19-2.12 4.19-4.12h3l-1-5 4-2c.06-.99.12-1.98.18-3 .64-4.72 3.12-8.18 5.82-12l2-1 2-9 1-1c-.03-.61-.05-1.21-.07-1.83l-.06-2.42c-.02-.79-.05-1.58-.07-2.39.21-2.57.91-4.16 2.2-6.36h3c.01-.6.01-.6.07-3.64.29-9.39 1.05-18.5 2.8-27.74.16-.87.32-1.74.49-2.64.74-3.69 1.46-6.65 3.24-9.99 1.96-4.21 1.88-7.96 1.83-12.56 0-.91 0-1.81-.01-2.75-.17-8.66-1.7-16.9-3.55-25.34-.69-3.18-1.09-6.08-.87-9.34h-2l1-4-2-3c-.38-2.71-.38-2.71-.57-5.82-.07-1.07-.15-2.14-.23-3.25-.07-.97-.14-1.94-.2-2.93-.58-5.99-2.7-11.7-7-16-.07-.58-.13-1.16-.19-1.76-.47-4.44-1.02-8.84-1.81-13.24h-2l-1-2-3-1c-.15-.75-.29-1.49-.44-2.25-1.35-6.61-1.35-6.61-4.56-8.75l-1-4c-.45-.4-.9-.81-1.37-1.22-1.84-2.01-2.75-3.85-3.82-6.35l-1.04-2.38c-.77-2.05-.77-2.05-.77-4.05l-4-2-1-3h-2c-4.41-8.27-4.41-8.27-5-13l-3-1c-.56-.71-1.12-1.41-1.69-2.13-.77-.95-1.53-1.9-2.31-2.87-.21-.27-.21-.27-1.28-1.6-2.12-2.61-3.9-4.52-6.72-6.4v-2l-3-1-1-2-4-2v-3l-3-1v-3l-5-1v-2l-8-1c-1.63-1.27-3.26-2.54-4.88-3.82-.9-.7-1.81-1.41-2.74-2.14-2.38-2.04-2.38-2.04-4.38-5.04-2.13-1.19-2.13-1.19-4-2v-2c-.99-.17-.99-.17-6-1-.17-.66-.17-.66-1-4l-9 1-5-3c-.17-.99-.17-.99-1-6h-14c-.91-.64-1.82-1.28-2.75-1.94-2.65-1.68-4.24-2.6-7.25-3.06v-2c-1.24.26-2.48.53-3.75.81-5.52.64-9.31-1.26-14.25-3.54-3.61-1.53-7.08-2.24-10.95-2.82-2.05-.45-2.05-.45-5.05-2.45l-54-1 1-2c13.01-2.05 24.82-3.65 37.87-1.33"/><path fill="#3c8d7e" d="M504 276c7.63.88 7.63.88 11 2-3 2-3 2-6 2-.27.58-.53 1.16-.8 1.76-3.34 6.24-8.91 11-14.22 15.53-4.39 3.8-8.38 7.94-12.1 12.4-2.39 2.84-4.93 5.04-7.88 7.31a471 471 0 0 0-5 5c-20 20-20 20-22.68 22.64-2.32 2.36-2.32 2.36-4.13 4.74-1.85 2.21-3.58 3.89-5.75 5.74-6.64 5.69-13.05 11.89-18.63 18.63-1.93 2.34-3.96 4.3-6.29 6.26-5.5 4.76-10.59 9.95-15.71 15.11-.98.99-1.96 1.98-2.94 2.96-1.81 1.81-3.61 3.63-5.41 5.44-1.71 1.73-3.43 3.44-5.16 5.15-2.3 2.33-2.3 2.33-4.11 4.71-1.85 2.21-3.58 3.89-5.75 5.74-6.64 5.69-13.05 11.89-18.63 18.63-2.64 3.19-5.62 5.82-8.78 8.48-2.46 2.15-4.73 4.44-7.03 6.77l-4.03 4.03-2.21 2.21-6.73 6.73-2.11 2.11c-1.16 1.17-2.33 2.33-3.5 3.48-1.89 1.87-3.61 3.69-5.23 5.82-1.85 2.21-3.58 3.89-5.75 5.74-7.27 6.22-14.02 13.03-20.11 20.4-2.19 2.44-4.81 4.39-7.33 6.48-1.2 1.46-2.41 2.91-3.58 4.39-2.29 2.59-4.95 4.72-7.58 6.95-2.24 2.02-3.97 4.3-5.84 6.66-1.72 1.56-3.49 3.04-5.27 4.53-3.22 2.74-6.09 5.67-8.73 8.97s-5.61 6.2-8.7 9.09c-4.26 4.08-7.4 8.27-10.3 13.41l-2 1c-.37.76-.74 1.53-1.12 2.31-1.51 3.04-3.16 5.98-4.82 8.94-2.37 4.32-4.36 8.65-6.1 13.27-.75 1.94-1.59 3.85-2.47 5.74-1.74 4.02-2.45 8.06-3.11 12.36-.25 1.48-.49 2.95-.73 4.42-.11.69-.22 1.39-.34 2.1-.24 1.45-.55 2.88-.88 4.3-2.15 12.8-.33 26.06 2.57 38.56.38 1.69.75 3.38 1.12 5.06.16.67.31 1.34.47 2.03.63 2.95 1.03 5.92 1.41 8.91-2.87-2.42-3.71-4.6-4.69-8.19-.25-.9-.5-1.8-.76-2.73-.18-.69-.36-1.37-.55-2.08l-3-1c-.05-7.46-.08-14.92-.1-22.38-.01-3.46-.03-6.92-.05-10.39-.03-3.98-.04-7.97-.05-11.96 0-.62 0-.62-.03-3.75v-3.51c0-1.02-.01-2.04-.01-3.09.27-3.23 1.1-5.9 2.24-8.92h2v-3h3l1-14 3-1 1-3 3-2 1-8 4 2c-.16-.66-.16-.66-1-4l4-1 2-6 3-1v-2l4-2 1-4c.35-.15.35-.15 2.12-.94 4.09-2.93 6.29-6.81 8.88-11.06h2c-.16-.5-.16-.5-1-3l6-3 1-2h4l1-4 3-1v-2l4-1v-4l4-1c2.96-2.76 5.04-5.47 7-9 .59-.24 1.19-.49 1.8-.74 2.57-1.47 3.75-2.98 5.45-5.38.26-.37.26-.37 1.58-2.2q.57-.825 1.17-1.68h3l1-4c.95-.58 1.9-1.15 2.88-1.75 3.12-2.25 3.12-2.25 4.06-4.19 1.22-2.37 2.24-2.98 4.44-4.44 3.61-2.42 5.44-4.88 7.62-8.62l4-1 2-4h2l2-4h2l2-5 5-3c.23-.58.45-1.15.69-1.75 1.64-2.82 3.71-4.33 6.31-6.25h2l2-5 2.12-1c3.89-2.7 6.21-6.14 8.88-10h3l1-4c.95-.58 1.9-1.15 2.88-1.75 3.12-2.25 3.12-2.25 4.06-4.19 1.22-2.37 2.24-2.98 4.44-4.44 3.61-2.42 5.44-4.88 7.62-8.62l4-1c1.52-2.94 2.8-5.92 4-9l3-1c.33-.5.33-.5 2-3h2l2-6c1.27-.65 2.54-1.29 3.81-1.94l2.15-1.09C403 383 403 383 406 382l2-5 2.12-1c3.89-2.7 6.21-6.14 8.88-10h3l1-4c.95-.58 1.9-1.15 2.88-1.75 3.12-2.25 3.12-2.25 4.06-4.19 1.22-2.37 2.24-2.98 4.44-4.44 3.61-2.42 5.44-4.88 7.62-8.62l4-1c1.52-2.94 2.8-5.92 4-9l2-1 2 1c.05-.29.05-.29.33-1.77 1.15-3.83 3.81-6.51 6.67-9.23a80 80 0 0 1 5-2c3.05-2.76 5.64-5.64 8-9 .5-.17.5-.17 3-1l6-8h3l1-4c.95-.58 1.9-1.15 2.88-1.75 3.12-2.25 3.12-2.25 4.06-4.16 1.32-2.6 2.96-3.97 5.18-5.84.73-.61 1.45-1.23 2.2-1.86.55-.46 1.11-.92 1.68-1.39v-3c.31-1.34.63-2.68 1-4m178 172v2h-3v6l-3 1-1 5c-1.24.45-2.48.91-3.75 1.38-2.84 1.06-5.58 2.17-8.25 3.62-.16.5-.16.5-1 3q-1.47 1.53-3 3l-1 2h-3v4c-.5.17-.5.17-3 1l2 1-2 5-4-2-3 3h-2c-.25.57-.49 1.13-.75 1.72-1.93 3.52-4.73 6.16-7.47 9.06-1.75 2.18-2.38 3.5-2.78 6.22l-4 1c-.16.33-.16.33-1 2-.5.17-.5.17-3 1l-1 3-5 1c-.16.5-.16.5-1 3l-4 4c-1.25 2.25-1.25 2.25-2 4-.5.16-.5.16-3 1-.16.5-.16.5-1 3-2.67 1.66-5 3-8 4l-2 4h-2c-.16.66-.16.66-1 4h-3v4l-3 2 1 3-1 2-4-1c-.83.33-.83.33-5 2-.23.56-.45 1.11-.69 1.69C577 555 577 555 574.5 557.31c-3.05 3.28-3.57 5.38-4.5 9.69-3.33 1.67-6.67 3.33-10 5l-1 3c-.5.33-.5.33-3 2l-1 4c-.38.27-.38.27-2.31 1.62-3.01 2.66-4.27 4.65-5.69 8.38-.19 3.38-.19 3.38 0 6 .49.41.99.82 1.5 1.24.64.54 1.28 1.08 1.94 1.64.64.53 1.27 1.06 1.93 1.61C554 603 554 603 555 605c.38.13.38.13 2.31.81 4.18 1.85 5.84 4.07 7.69 8.19h2v3l7 1v2h-2v2l3 1 4 6h8v8l-2 1c-8.14-6.82-15.52-14.41-23-21.94-1.36-1.36-2.72-2.73-4.08-4.09C548 602.02 548 602.02 548 600c-.28-.11-.28-.11-1.69-.69-2.94-1.67-4.99-3.86-7.31-6.31l-1-4c.87-.68 1.73-1.36 2.62-2.06 2.39-1.98 4.4-4.05 6.38-6.44 2.7-3.26 5.74-5.79 9-8.5 1.02-1.15 2.02-2.32 3-3.5 2.7-3.26 5.74-5.79 9-8.5 1.02-1.15 2.02-2.32 3-3.5 2.7-3.26 5.74-5.79 9-8.5 1.02-1.15 2.02-2.32 3-3.5 2.7-3.26 5.74-5.79 9-8.5 1.02-1.15 2.02-2.32 3-3.5 2.73-3.3 5.67-5.81 9-8.5 2.69-2.56 5.1-5.12 7.44-8 2.56-3 2.56-3 5.5-5.44 2.37-1.98 4.12-3.71 6.06-6.06 2.7-3.26 5.74-5.79 9-8.5 1.02-1.15 2.02-2.32 3-3.5 2.7-3.26 5.74-5.79 9-8.5 1.02-1.15 2.02-2.32 3-3.5 2.7-3.26 5.74-5.79 9-8.5 1.02-1.15 2.02-2.32 3-3.5 2.7-3.26 5.74-5.79 9-8.5 1.54-1.73 3-3.5 4.48-5.29 5.96-6.71 5.96-6.71 9.52-6.71"/><path fill="#3C8D7E" d="M716 138v3c.92.04 1.84.07 2.78.11 7.06.38 12.77 1.01 19.22 3.89 2 .68 4 1.35 6 2 .16.33.16.33 1 2 .42.02.42.02 2.52.15 1.09.07 2.17.15 3.29.23 1.08.06 2.16.13 3.27.21C757 150 757 150 760 152v2c.58.27 1.15.54 1.75.81 2.28 1.21 4.22 2.6 6.25 4.19v2l2.44.12c4.94 1.22 8.48 3.92 12.56 6.88v6l4 2v2c.66.16.66.16 4 1l1 3c.58.21 1.15.41 1.75.62 3.06 1.88 4.41 4.35 6.25 7.38v5h3l2 6 4 2c2.2 4.55 2.59 9.03 3 14l4 4c.06.51.06.51.38 3.06.62 3.94.62 3.94 1.58 6.9 1.58 5.43 1.86 11.05 2.29 16.66.09 1.16.18 2.32.27 3.51.54 7.92.52 15.14-1.52 22.87l-2-1 .03-1.92c.34-23.47.34-23.47-2.03-33.08l-.88-3.7c-1.99-8.01-4.22-16.06-8.24-23.32C805 209 805 209 805 205l-3-1c-.43-.89-.87-1.77-1.31-2.69-3.77-7.39-3.77-7.39-6.03-9.64-2.09-2.1-3.92-4.36-5.78-6.67-.71-.87-1.41-1.73-2.14-2.62C785 180 785 180 784 177c-.36-.11-.36-.11-2.19-.69-3.39-1.58-5.19-3.63-7.81-6.31-2.01-1.57-4.06-3.08-6.13-4.57-1.87-1.43-1.87-1.43-3.46-3.05-1.9-1.86-3.93-2.44-6.41-3.38-2.52-1.45-4.95-2.97-7.38-4.56-3.11-1.71-6.2-2.48-9.62-3.44-.97-.5-1.94-.99-2.94-1.5-9.99-4.9-22.34-5.78-33.31-6.19l-3.02-.12c-6.92-.24-13.67-.08-20.57.56-3.4.27-6.75.29-10.16.25 2-2 2-2 3.79-2.37.79-.16 1.58-.33 2.4-.51.77-.16 1.55-.32 2.35-.49 2.6-.67 4.97-1.62 7.46-2.63 9.73-3.03 19.13-1.41 29 0"/><path fill="#46bfaf" d="M509 280h3c-1.57 3.85-4.05 6.12-7 9-.42.42-.42.42-2.57 2.55-.89.89-1.78 1.77-2.7 2.69-1.52 1.51-3.03 3.02-4.55 4.52-1.03 1.03-2.07 2.06-3.1 3.08-9.73 9.65-9.73 9.65-13.81 14.45-2.82 3.31-5.89 6.09-9.2 8.91-3.71 3.23-7.16 6.74-10.63 10.24-.72.71-1.43 1.42-2.17 2.16-3.4 3.4-6.68 6.83-9.8 10.5-2.89 3.36-6.02 6.22-9.4 9.1-3.71 3.23-7.16 6.74-10.63 10.24-.72.71-1.43 1.42-2.17 2.16-3.4 3.4-6.68 6.83-9.8 10.5-2.89 3.36-6.02 6.22-9.4 9.1-3.71 3.23-7.16 6.74-10.63 10.24-.72.71-1.43 1.42-2.17 2.16-3.4 3.4-6.68 6.83-9.8 10.5-2.89 3.36-6.02 6.22-9.4 9.1-3.71 3.23-7.16 6.74-10.63 10.24-.72.71-1.43 1.42-2.17 2.16-3.4 3.4-6.68 6.83-9.8 10.5-2.89 3.36-6.02 6.22-9.4 9.1-3.71 3.23-7.16 6.74-10.63 10.24-.72.71-1.43 1.42-2.17 2.16-3.4 3.4-6.68 6.83-9.8 10.5-2.89 3.36-6.02 6.22-9.4 9.1-3.71 3.23-7.16 6.74-10.63 10.24-.72.71-1.43 1.42-2.17 2.16-3.4 3.4-6.68 6.83-9.8 10.5-2.89 3.35-6 6.2-9.37 9.06-3.9 3.41-7.51 7.11-11.16 10.78-.77.76-1.53 1.52-2.32 2.3-4.22 4.23-8.28 8.54-12.16 13.08-2.04 2.35-4.24 4.51-6.46 6.68-5.74 5.62-10.98 10.97-15 18h-2c.16-.66.16-.66 1-4h2l.73-2.19c1.45-3.22 3.23-5.24 5.65-7.81 3.02-3.24 5.86-6.53 8.62-10 1.65-1.69 3.31-3.35 5-5l2.44-2.44L262 528h2c.24-.57.49-1.14.74-1.73 1.47-2.65 3.21-4.42 5.38-6.52l2.2-2.14C274 516 274 516 276 516l2-4h2c.23-.58.45-1.15.69-1.75 1.64-2.82 3.74-4.25 6.31-6.25 1.81-2.25 1.81-2.25 3-4h2c.2-.53.41-1.06.62-1.61 1.98-3.42 4.68-5.9 7.5-8.64.57-.55 1.13-1.11 1.71-1.68 4.14-4.07 4.14-4.07 6.17-4.07.23-.56.45-1.11.69-1.69 1.68-2.97 3.84-4.96 6.31-7.31 1.67-1.66 3.34-3.33 5-5l4.43-4.43 2.41-2.41L338 452h2l.79-1.79c1.27-2.33 2.61-3.81 4.52-5.65l1.87-1.81c.6-.58 1.2-1.15 1.82-1.75l2.94-2.94L354 436h2c.2-.53.41-1.06.62-1.61 1.98-3.42 4.68-5.9 7.5-8.64.57-.55 1.13-1.11 1.71-1.68 4.14-4.07 4.14-4.07 6.17-4.07.23-.56.45-1.11.69-1.69 1.68-2.97 3.84-4.96 6.31-7.31 1.67-1.66 3.34-3.33 5-5l3.15-3.15 1.71-1.71L418 372h2c.2-.53.41-1.06.62-1.61 1.98-3.42 4.68-5.9 7.5-8.64.57-.55 1.13-1.11 1.71-1.68 4.14-4.07 4.14-4.07 6.17-4.07.11-.28.11-.28.69-1.69 1.68-2.97 3.84-4.96 6.31-7.31 1.67-1.66 3.34-3.33 5-5 22-22 22-22 24.66-24.65a291 291 0 0 0 4.9-5.04c2.14-2.02 3.75-3.21 6.44-4.31.2-.53.41-1.06.62-1.61 1.98-3.42 4.68-5.9 7.5-8.64.57-.55 1.13-1.11 1.71-1.68 4.14-4.07 4.14-4.07 6.17-4.07.26-.57.51-1.14.77-1.73 1.36-2.51 2.95-4.4 4.85-6.52.64-.71 1.27-1.41 1.92-2.14z"/><path fill="#3c8d7e" d="m667.188 49.938 2.73.03 2.08.03v2l-2.23.84c-2.77 1.16-2.77 1.16-4.88 2.45-6.04 3.67-11.17 4.01-18.05 3.76-6.44-.2-11.21 1.09-16.86 3.99-2.89 1.41-5.89 2.12-8.98 2.96-1.31.38-2.62.75-3.93 1.13-1.02.29-2.03.58-3.07.87l-2 4c-.6.12-1.2.24-1.83.37-.79.17-1.59.33-2.42.51-.79.16-1.58.32-2.39.49-2.36.63-2.36.63-4.47 1.7-1.89.93-1.89.93-4.89.93-.29.6-.57 1.2-.87 1.82-2.35 4.56-4.92 6.38-9.13 9.18v-3c-13.88 7.66-13.88 7.66-15 11l-3 1-2 3-3 1-2 6c-.99.17-.99.17-6 1l-1 4c-.99.17-.99.17-6 1l-1 4c-.33.17-.33.17-2 1l-1 6h-5c-.1.59-.19 1.17-.29 1.77-.85 2.68-2.03 3.95-3.96 5.98-3.47 3.81-6.18 7.8-8.75 12.25-6.03 2.44-11.42 4-18 4 3.52-3.76 3.52-3.76 6.07-5 2.4-1.24 3.45-2.77 4.93-5h2c.25-.57.5-1.15.75-1.75 1.42-2.55 3.13-4.27 5.25-6.25h2l2-4h2c.23-.58.46-1.15.69-1.75 1.65-2.82 3.75-4.25 6.31-6.25 1.81-2.25 1.81-2.25 3-4h2q.315-.825.63-1.68c1.55-2.61 3.45-4.17 5.81-6.04 1.56-1.28 1.56-1.28 3.94-3.72 3.3-3.22 6.89-5.85 10.62-8.56.44-.32.44-.32 2.68-1.98 5.32-3.92 10.67-7.61 16.32-11.02l1-2c1.03-.43 2.07-.86 3.13-1.31 2.46-1.05 4.8-2.16 7.18-3.37 2.69-1.32 2.69-1.32 4.69-1.32v-2l7-2 1-2c1.22-.27 2.44-.53 3.69-.81 3.57-.88 6.17-2.25 9.31-4.19 2.32-.7 4.66-1.37 7-2 .75-.31 1.5-.61 2.27-.93 8.2-3.2 17.14-5.1 25.78-6.67 7.39-1.5 7.39-1.5 10.14-1.46M746 512l3 1v2c-.59.25-1.18.51-1.79.77-2.45 1.37-3.79 2.77-5.59 4.92-.3.35-.3.35-1.83 2.16-1.11 1.33-2.2 2.65-3.29 3.99-3.18 3.82-6.57 7.05-10.35 10.27-3.91 3.44-7.51 7.18-11.15 10.89l-12 12h-2c-.14.3-.14.3-.83 1.81-1.14 2.14-2.25 3.52-3.97 5.21l-1.7 1.7c-.6.59-1.2 1.19-1.82 1.8s-1.24 1.23-1.88 1.86c-1.97 1.96-3.95 3.92-5.92 5.87q-2.025 1.995-4.02 3.99C671.03 592 671.03 592 669 592l-2 4c-.5.16-.5.16-3 1-.16.5-.16.5-1 3h-2c-.12.29-.12.29-.74 1.73-1.47 2.65-3.21 4.42-5.38 6.52l-2.2 2.14C651 612 651 612 649 612c-.21.56-.41 1.11-.62 1.69-1.54 2.58-3.4 4.05-5.74 5.89-1.75 1.52-3.17 3.13-4.64 4.92-2.7 3.26-5.74 5.79-9 8.5-1.02 1.15-2.02 2.32-3 3.5-2.7 3.26-5.74 5.79-9 8.5-1.57 1.72-3.06 3.49-4.54 5.29-2.03 2.38-4.22 4.53-6.46 6.71-8.94-2.24-14.48-11.48-21-18 .33-.16.33-.16 2-1l7 4 1 4 4 1c4 4 4 4 4 6l3-1 1-2h2l1-3 5-5c1.05-1.63 2.07-3.29 3-5l3-1 2-4 6-3c.16-.66.16-.66 1-4h3c.16-.5.16-.5 1-3 6-5 6-5 8-5v-2h3v-6l3-1 2 1v-2l4-1 2-4 3-1v-2l2-1c.16-.66.16-.66 1-4l5-1c.16-.5.16-.5 1-3l4-4 1.06-2.12C674 582 674 582 677 580l1-2 3-1c.76-.93 1.53-1.86 2.31-2.81 1.81-2.17 3.64-4.25 5.69-6.19l1-4 3-3h4l1-4c.66.16.66.16 4 1l1-5c.89-.56 1.77-1.11 2.69-1.69 2.3-1.52 3.94-2.94 5.93-4.93 2.12-2.12 3.65-3.27 6.38-4.38l1-4c.33-.16.33-.16 2-1l1-3h4l-1-4c.72-.23 1.44-.45 2.19-.69 4.46-2.08 7.11-5.26 9.81-9.31l1-3 5-1zM214 673h2c.63 1.23 1.25 2.46 1.88 3.69q.51 1.02 1.05 2.07C220 681 220 681 220.92 683.4c3.33 8.03 8.52 17.7 15.08 23.6v2c.29.13.29.13 1.79.76 2.5 1.4 3.83 2.9 5.65 5.12 2.62 3.11 5.25 5.71 8.56 8.12v2l4 1 1.21 1.33c2.02 1.88 4.05 3.05 6.48 4.36.81.43 1.61.87 2.45 1.32.61.33 1.23.65 1.86.99l1 2c.48.21.48.21 2.94 1.25 6.43 2.76 12.83 5.55 19.06 8.75v1c-6.46.56-11.15-1.37-17-4l-2-3-3.38-.88C265 738 265 738 263 736l-5-1v-3c-.72-.1-1.43-.2-2.17-.31-3.18-.77-5.38-2.02-8.14-3.75-.89-.55-1.77-1.1-2.68-1.66-.66-.42-1.33-.85-2.01-1.28l-1-6-7-2c-7-10-7-10-7-13h-2v-5l-4 1v-10l-4 2c-1.11-3.33-.84-5.62 0-9l-5 1z"/><path fill="#3C8D7E" d="M810 306h1c-.44 6.21-1.92 10.61-5 16-.33.17-.33.17-2 1l-1 7-3 1c-.16.5-.16.5-1 3h-4c-.16.82-.16.82-1 5h-3v5h-3c-.08.56-.16 1.11-.25 1.69-1.37 4.23-4.59 7.28-7.75 10.31l-1.69 1.69L777 359h-2c-.27.62-.54 1.24-.81 1.88C773 363 773 363 770 365l-1 3c-1.32.82-1.32.82-8 5l-1 6h-3l-1-2-3 3 1 2-5-2v-2c.66-.16.66-.16 4-1l2-4h2l2-4h2c.2-.53.41-1.06.62-1.61 1.98-3.42 4.68-5.9 7.5-8.64.29-.28.29-.28 1.71-1.68 4.14-4.07 4.14-4.07 6.17-4.07.26-.58.52-1.16.79-1.75 3.15-5.85 8.47-10.66 13.21-15.25h2c.11-.58.21-1.16.32-1.76.78-2.56 1.88-4.04 3.56-6.12 2.51-3.24 4.4-6.37 6.12-10.12 4.05-8.46 4.05-8.46 7-12M650 150v2c-3.61 2.44-7.26 4.76-11 7l-1 1h-5l-1 3-4 1-1 3c-3.25 2.22-6.42 4.35-10 6-.16.5-.16.5-1 3-.45.38-.89.75-1.36 1.14-3.71 3.14-7.24 6.37-10.64 9.86l-1.69 1.66c-2.76 2.71-5.36 5.4-7.81 8.4-2.44 2.87-4.98 5.1-7.86 7.49-2.18 1.93-3.9 4.12-5.64 6.45l-2 2v-5c.5-.16.5-.16 3-1v-7c2.65-1.46 3.89-2 7-2l1-5c.66-.16.66-.16 4-1 .29-.37.29-.37 1.75-2.25 3.5-4.28 7.41-7.78 11.66-11.29C609 177 609 177 611 174l3-1 6-7 4-1 2-6c11.29-6.39 11.29-6.39 17-8 2.46-1.23 4.28-1.07 7-1"/><path fill="#3c8d7e" d="m363 745 2 2-3 1v2l-13 2v2c-8.23 4.12-22.33 2.11-31.25 2.12-1.2.01-2.41.01-3.64.02-1.14 0-2.27-.01-3.44-.01h-3.09C305 756 305 756 302 755v-3l-9-3-2-3c5 0 5 0 8 2 2.71.48 5.33.85 8.06 1.12.4.05.4.05 2.43.26 12.48 1.19 24.77.82 37.26-.19.46-.04.46-.04 2.82-.21 5.11-.47 8.95-1.27 13.43-3.98"/><path fill="#46bfaf" d="M729 533c.16.33.16.33 1 2l-6 7h-2c-.12.29-.12.29-.75 1.75-1.42 2.55-3.13 4.27-5.25 6.25h-2c-.14.3-.14.3-.83 1.81-1.14 2.14-2.25 3.52-3.97 5.21l-1.7 1.7c-.6.59-1.2 1.19-1.82 1.8s-1.24 1.23-1.88 1.86c-1.97 1.96-3.95 3.92-5.92 5.87q-2.025 1.995-4.02 3.99C684.03 582 684.03 582 682 582l-2 4h-2l-2 4h-2c-.25.58-.5 1.15-.75 1.75-1.42 2.55-3.13 4.27-5.25 6.25h-2c-.25.58-.5 1.15-.75 1.75-1.42 2.55-3.13 4.27-5.25 6.25h-2l-2 4h-2c-.16.5-.16.5-1 3-3.56 3.82-7.45 7.3-11.31 10.81-.55.5-1.1 1.01-1.67 1.52-4.01 3.67-4.01 3.67-6.02 3.67-.24.57-.49 1.14-.74 1.73-1.47 2.65-3.21 4.42-5.38 6.52l-2.2 2.14C624 641 624 641 620 642c2.52-3.19 4.8-5.84 7.94-8.44 2.34-1.96 4.03-3.62 5.94-5.94 2.8-3.4 5.96-6.15 9.32-9C645 617 645 617 647 614.5c2.41-3.01 5.19-5.31 8.12-7.81 2.25-2.03 4-4.32 5.88-6.69 1.67-1.51 3.38-2.95 5.12-4.38 2.42-2.09 4.63-4.35 6.88-6.62l2.97-2.97 1.58-1.58 19.48-19.48 1.52-1.52c1.4-1.4 2.81-2.8 4.22-4.2 2.12-2.14 4.08-4.34 6.04-6.63 3.17-3.6 6.5-6.75 10.16-9.85 3.52-3.07 6.77-6.43 10.03-9.77M418 708c6 1 6 1 7.09 2.3 5.83 6.84 12.2 13.13 18.55 19.48l3.66 3.66c2.54 2.53 5.08 5.07 7.62 7.61 3.26 3.25 6.51 6.51 9.77 9.77 2.5 2.51 5.01 5.02 7.52 7.53 1.2 1.2 2.41 2.4 3.61 3.6 1.67 1.68 3.34 3.35 5.02 5.01.49.5.99 1 1.5 1.51 3.43 3.42 3.43 3.42 5.66 4.53v6c-8 7-8 7-10 7-.17.5-.17.5-1 3l-4.98 3.42C470 794 470 794 467.69 796.34c-2.99 2.96-6.15 5.45-9.5 7.97-.6.46-1.2.91-1.81 1.38-1.46 1.11-2.92 2.21-4.38 3.31-.33-.16-.33-.16-2-1 6-5 6-5 8-5v-2c.76-.43 1.53-.87 2.31-1.31 2.27-1.43 3.91-2.72 5.69-4.69h2c.17-.5.17-.5 1-3 .51-.44 1.02-.87 1.54-1.32 4.33-3.75 8.46-7.58 12.46-11.68h2v-6c-.56-.23-1.11-.46-1.69-.7-2.94-1.66-4.96-3.73-7.34-6.13-.47-.48-.94-.95-1.42-1.44-1.5-1.51-3-3.02-4.49-4.54l-3-3.03c-1.85-1.86-3.69-3.73-5.54-5.6-2.49-2.53-5-5.05-7.52-7.56l-19-19v-2c-.58-.26-1.17-.51-1.77-.77-2.44-1.35-4.05-2.85-5.98-4.85-.61-.64-1.23-1.27-1.86-1.92C424 714 424 714 423 710l-5-1zm490-487h2c10.17 21.09 6.62 54.84 2 77-.64 1.68-1.3 3.35-2 5-.36 2.14-.67 4.29-.94 6.44-.68 4.81-1.48 8.45-4.06 12.56l-2-2c.93-3.33 1.86-6.6 3.01-9.86.98-3.09 1.54-6 1.99-9.2.99-6.89.99-6.89 1.54-10.18 3.36-20.37 3.61-41.44-.92-61.65-.56-2.81-.74-5.26-.62-8.11M537 589c4 5 4 5 4 7 .56.23 1.11.45 1.69.69 2.92 1.66 4.98 3.93 7.31 6.31 1.17 1.17 2.34 2.35 3.52 3.52L603 656c4-1 4-1 5.07-2.32 3.63-4.38 7.5-8.11 11.93-11.68v3c-.85.64-1.69 1.28-2.56 1.94-4.17 3.44-7.25 7.73-10.44 12.06h-5l-11-11v-2l-4-2v-2l-4-2v-2l-4-2v-2c-.57-.24-1.14-.49-1.73-.74-2.65-1.47-4.42-3.21-6.52-5.38l-2.14-2.2C567 624 567 624 567 622c-.58-.25-1.15-.5-1.75-.75-2.55-1.42-4.27-3.13-6.25-5.25v-2l-4-2v-2c-.59-.26-1.18-.53-1.78-.8-2.32-1.26-3.83-2.58-5.67-4.46-.31-.31-.31-.31-1.88-1.89-.63-.65-1.27-1.3-1.92-1.97l-1.97-2c-4.77-4.84-4.77-4.84-5.78-8.88z"/><path fill="#3c8d7e" d="M410 719c.17.66.17.66 1 4l-3 1-1 3-3 1 2 1-1 3c-3 1-3 1-7 0-.23.59-.45 1.17-.69 1.77-1.67 2.84-3.57 4.05-6.31 5.85-4.86 3.24-4.86 3.24-7 5.38-6.46 1.95-12.27 2.22-19 2 1-2 1-2 3.31-2.88C371 743 371 743 374 741l3.06-1c2.94-1 2.94-1 4.94-3 2-.67 4-1.33 6-2 3.13-1.67 5.62-3.37 8-6l4-1v-2c.45-.3.45-.3 2.75-1.81 2.48-1.67 4.88-3.37 7.25-5.19"/><path fill="#46bfaf" d="M220 435v3h-2l-1 3c-.45.36-.89.73-1.36 1.1-3 2.5-5.63 4.89-8.14 7.9-2.42 2.9-4.92 5.1-7.81 7.5C198 459 198 459 195.5 462c-2.42 2.9-4.92 5.1-7.81 7.5C186 471 186 471 183.5 474c-1.95 2.34-3.63 4.03-5.94 5.94-3.63 3-6.6 6.4-9.56 10.06h-2c-.23.7-.47 1.4-.71 2.12-1.52 3.39-3.6 6.07-5.91 8.94-6.47 8.21-12.37 16.76-17.38 25.94-.33.16-.33.16-2 1 .27-5.32 2.32-8.11 5.51-12.12 1.73-2.18 3.12-4.46 4.49-6.88 2.67-4.67 2.67-4.67 4.38-6.37 1.89-1.9 3.48-3.94 5.12-6.07.59-.76 1.18-1.52 1.78-2.31 1.58-2.07 3.16-4.16 4.72-6.25h2l2-4h2l2-4h2l2-4h2l2-4h2l2-4h2c.25-.58.5-1.15.75-1.75 1.42-2.55 3.13-4.27 5.25-6.25h2l2-4h2l2-4h2l2-4h2l2-4h2l2-4h2l2-4zM116 598h1c.19 4.17-.1 7.84-.94 11.94-2.77 14.5-2.89 29.7.4 44.11.93 5.08 1.32 10.22 1.75 15.35.08.79.15 1.59.23 2.4l.18 2.16c.43 2.29 1.33 3.98 2.38 6.04.12 2.75.12 2.75 0 5-3.39-2.62-4.25-5.95-5-10-.28-2.75-.5-5.49-.66-8.25-.34-2.75-.34-2.75-1.3-5.45-1.41-4.46-1.76-8.85-2.16-13.49-.09-.94-.17-1.89-.26-2.86-.85-10.06-.65-19.65.19-29.7.07-.9.14-1.8.21-2.73.51-5.42 1.55-9.64 3.98-14.52m752-466c5.57 1.39 7.6 5.72 10.5 10.44.5.84.99 1.69 1.5 2.56.81 1.29 1.62 2.58 2.44 3.88 3.27 5.23 6.31 10.35 8.56 16.12 1.81 3.82 3.65 7.48 6 11 1.03 2.82 1.9 5.66 2.72 8.54.26.9.52 1.79.78 2.71.24.85.47 1.7.72 2.58C902 192 902 192 904 194c.19.87.39 1.74.59 2.63.13.58.13.58.79 3.49.25 1.14.51 2.28.77 3.45.85 3.43.85 3.43 1.94 6.59 1.22 3.81 1.05 6.86.91 10.84-2-2-2-2-2.81-5.81-1.61-7.23-3.4-14.33-6.19-21.19-.47-1.41-.93-2.83-1.38-4.25-1.56-4.74-3.54-9.22-5.62-13.75-.67-1.52-1.33-3.04-2-4.56-3.23-7.26-6.93-14.2-10.83-21.12C879 148 879 148 879 146l-3-1c-2.3-3.56-3.77-6.95-5-11l-3-1zM620 506v3c-.87.68-1.73 1.36-2.62 2.06-2.39 1.98-4.4 4.05-6.38 6.44-1.9 2.3-3.61 4-5.94 5.94-3.8 3.18-6.88 6.77-10.06 10.56h-2c-.16.5-.16.5-1 3-.85.66-1.69 1.32-2.56 2-3.32 2.75-6 5.89-8.79 9.16-2.01 2.24-4.3 3.96-6.65 5.84-2.41 2.6-4.72 5.29-7 8h-2l-1 3c-.43.34-.43.34-2.62 2.06-2.39 1.98-4.4 4.05-6.38 6.44-2.7 3.26-5.74 5.79-9 8.5-2.08 2.27-4.06 4.61-6 7l-3-1c.87-.68 1.73-1.36 2.62-2.06 3-2.49 5.44-5.23 7.92-8.23 2.03-2.38 4.22-4.53 6.46-6.71h2l1-3c2.32-2.51 4.66-4.74 7.38-6.81 2.95-2.47 5.3-5.19 7.79-8.1 2.79-3.19 5.81-6.13 8.83-9.09.87-.89 1.73-1.77 2.62-2.69 2.38-2.31 2.38-2.31 4.82-4.19 2.15-1.78 3.73-3.43 5.5-5.56 1.92-2.31 3.65-4.05 6-6 3.19-2.67 5.77-5.53 8.45-8.69 1.47-1.71 3-3.3 4.61-4.87h2c.27-.62.54-1.24.81-1.88C617 508 617 508 620 506M120 685h2c.27 1.09.54 2.19.81 3.31.4 1.57.79 3.13 1.19 4.69.24.96.48 1.92.73 2.91.25.98.51 1.96.77 2.97.24.92.47 1.85.72 2.8C127 704 127 704 129 706c.71 1.85.71 1.85 1.38 4.06 2.22 6.99 5.35 13.48 8.67 20.01 1.44 2.93 2.7 5.92 3.95 8.93l2 1c.41.87.82 1.73 1.25 2.62 1.72 3.33 3.63 6.3 5.75 9.38 1.09 1.62 2.17 3.25 3.25 4.88l1.58 2.36C158 761 158 761 158 763l3 1c1.37 1.29 2.71 2.62 4 4-.16.5-.16.5-1 3l-4-4v-2c-.56-.19-1.12-.38-1.7-.58-3.29-2.04-5.01-4.97-7.05-8.17-.44-.67-.87-1.34-1.32-2.03-8.97-13.91-17.33-28.67-23.14-44.2-.79-2.02-.79-2.02-1.83-4.04-.96-1.98-1.48-3.77-1.96-5.92-.56-2.39-1.15-4.41-2.12-6.68-1.07-2.9-1.02-5.32-.88-8.38m296 24c.33.16.33.16 2 1-4.41 6.76-9.91 13.72-18 16v2l-6 2c-.17.5-.17.5-1 3-2.82 1.79-5.6 3.3-8.69 4.56C381 739 381 739 379 741c-2.33.67-4.67 1.33-7 2l-2 2c-.69.12-1.37.24-2.08.37-.45.08-.45.08-2.73.51-.9.16-1.79.32-2.71.49C360 747 360 747 357 749c-7 1.11-13.92 1.11-21 1 2-2 2-2 4.56-2.11 5.93-.35 11.1-.76 16.56-3.14 2.07-.83 4.06-1.26 6.26-1.69 12.69-2.67 23.86-9.48 34.12-17.18 2.07-1.56 4.16-3.01 6.31-4.44 3.12-2.21 5.44-4.83 7.83-7.79 1.37-1.66 2.82-3.16 4.36-4.65m-205-96h1c-.11 1.31-.21 2.62-.32 3.97-.74 10.45-.74 20.5.57 30.91.12.99.24 1.98.37 3 .8 5.77 2.16 10.73 4.38 16.12.67 2.33 1.34 4.67 2 7 .64 1.68 1.3 3.35 2 5l-1 3c-3.35-4.54-5.13-8.71-6.62-14.12-.22-.75-.43-1.49-.65-2.26-1.7-6.15-2.86-12.3-3.73-18.62-.18-.89-.35-1.79-.54-2.71-.62-4.42-.64-8.77-.65-13.23 0-.43 0-.43-.03-2.63-.02-5.2.46-9.52 2.22-14.43zm92 231h52l-1 2c-8.2 1.89-16.2 2.31-24.58 2.26-2.05-.01-4.1 0-6.15.01-7.03.01-13.47-.38-20.27-2.27zm-76-24c.52.27 1.03.54 1.56.81 2.37 1.15 4.76 2.18 7.19 3.2 2.94 1.29 5.84 2.68 8.75 4.05 4.47 2.08 8.7 3.82 13.5 4.94v2l2.3.15c.99.07 1.99.15 3.01.23.99.06 1.97.13 2.99.21 2.7.41 2.7.41 5.7 2.41 2.21.55 4.45 1.02 6.69 1.44.65.12 1.3.25 1.97.37 2.11.41 4.22.8 6.34 1.19 1.52.29 3.03.57 4.55.86 3.81.72 7.63 1.43 11.45 2.14v1c-11.94.36-11.94.36-17.73-1.36-4.3-1.21-8.72-1.98-13.1-2.86-2.73-.67-4.71-1.5-7.17-2.78-2.28-.57-4.57-1-6.88-1.44C256 836 256 836 253 834c-1.01-.27-2.02-.54-3.06-.81-4.98-1.34-9.39-3.82-13.94-6.19l-4.62-2.31C228 823 228 823 227 820m545-652 7 5v2c.83.33.83.33 5 2 10 13 10 13 10 15l3 1c2.21 3.58 4.15 7.22 6 11l2 1c.21.56.21.56 1.25 3.38.89 2.4 1.81 4.77 2.8 7.13 2.06 4.9 3.49 9.19 3.95 14.49-3.58-3.26-4.77-6.02-5.88-10.75-2.08-8.71-7.33-16.23-12.37-23.5-1.52-2.38-2.33-4-2.75-6.75-.3-.13-.3-.13-1.8-.77-2.43-1.36-3.65-2.7-5.39-4.85-3.87-4.6-8.24-8.48-12.81-12.38z"/><path fill="#46bfaf" d="M140 528v3l-2 2c-.69 1.99-1.35 3.99-2 6-1.47 3.29-3.01 6.53-4.56 9.78-1.36 3.03-2.45 6.05-3.44 9.22h-2c-.05.69-.1 1.37-.15 2.08-.07.9-.15 1.8-.23 2.73-.06.9-.13 1.79-.21 2.71C125 568 125 568 123 571c-.4 2.16-.73 4.33-1 6.5-.78 6.17-.78 6.17-3 9.5-.44 1.88-.81 3.78-1.12 5.69-.17.99-.34 1.99-.51 3.01-.12.76-.25 1.52-.37 2.3h-1c-.34-6.68.07-12.25 2.21-18.6.76-2.31 1.3-4.58 1.79-6.96 2.11-9.87 5.67-19.87 11-28.44 1.02-2.33 2.01-4.66 3-7 1.64-3.55 3.01-6.43 6-9m286-300c0 3 0 3-2 6h-2l-1 3c-.48.4-.96.8-1.46 1.21-.63.53-1.26 1.06-1.92 1.6-.62.52-1.25 1.05-1.89 1.58C414 243 414 243 412 246h-2c-.17.5-.17.5-1 3-.45.36-.89.73-1.36 1.1-4.04 3.37-7.33 6.81-10.64 10.9-1.63 1.71-3.31 3.35-5 5h-2l-1 3c-.48.4-.96.8-1.46 1.21-.63.53-1.26 1.06-1.92 1.6l-1.89 1.58C382 275 382 275 380 278h-2l-1 3c-.45.36-.89.73-1.36 1.1-4.03 3.35-7.4 6.78-10.64 10.9l-2-1 3-4h2l2-4h2l2-4h2l2-4h2l2-4h2l2-4h2c.25-.58.5-1.15.75-1.75 1.42-2.55 3.13-4.27 5.25-6.25h2l2-4h2c.25-.58.5-1.16.75-1.75 1.42-2.55 3.13-4.27 5.25-6.25h2c.25-.58.5-1.16.75-1.75 1.42-2.55 3.13-4.27 5.25-6.25h2l2-4h2c.25-.58.5-1.16.75-1.75 1.42-2.55 3.13-4.27 5.25-6.25M820 84c4.98 2.68 9.19 5.6 13.44 9.31.56.49 1.13.98 1.72 1.49 1.12.96 2.23 1.93 3.35 2.91 1.22 1.06 2.45 2.1 3.69 3.14 8.81 7.49 17.21 15.62 23.8 25.15v2h2c.16.66.16.66 1 4-.33-.16-.33-.16-2-1v-2l-3-1c-.68-.83-1.36-1.65-2.06-2.5-.98-1.17-1.96-2.33-2.94-3.5-.48-.58-.97-1.16-1.47-1.76-7.64-8.95-15.83-17.52-25.53-24.24v-2l-4-1-1.19-1.25c-2.15-2.08-4.46-3.9-6.81-5.75zM362 292c0 3 0 3-2 6h-2l-1 3c-.22.18-.22.18-1.36 1.1-3 2.5-5.63 4.89-8.14 7.9-2.42 2.9-4.92 5.1-7.81 7.5C338 319 338 319 335.5 322c-1.96 2.35-3.68 4.08-6 6-3.3 2.73-5.81 5.67-8.5 9-1.63 1.71-3.31 3.35-5 5h-2l-1 3c-.45.36-.89.73-1.36 1.1-4.03 3.35-7.4 6.78-10.64 10.9l-2-1 3-4h2l2-4h2l2-4h2l2-4h2l2-4h2l2-4h2l2-4h2l2-4h2l2-4h2l2-4h2l2-4h2l2-4h2l2-4h2l2-4h2c.25-.58.5-1.15.75-1.75 1.42-2.55 3.13-4.27 5.25-6.25m48 536h4v2c-7.48 3.94-14.59 6.85-23 8l-2.34 1.46c-2.93 1.7-5.13 2.15-8.47 2.6-3.51.51-6.86 1.06-10.25 2.06-4.91 1.33-9.9 1.05-14.94.88 2-2 2-2 4.01-2.15.88-.07 1.77-.15 2.68-.23.87-.06 1.74-.13 2.63-.21 2.68-.41 2.68-.41 5.1-1.39 4.07-1.61 8.3-1.9 12.62-2.46C385 838 385 838 388 836c2.53-.6 5.06-1.01 7.62-1.44C398 834 398 834 401 832c1.18-.33 2.35-.66 3.56-1 3.44-1 3.44-1 5.44-3M726 48c5.85-.28 10.07.16 15.53 2.21 3.85 1.23 7.78 1.71 11.77 2.26 2.61.51 4.37 1.31 6.7 2.53 1.43.36 2.87.67 4.31.94 7.09 1.49 13.28 4.8 19.69 8.06-4 1-4 1-7.06-.31-.65-.28-1.3-.55-1.96-.83-1.74-.76-3.46-1.55-5.17-2.36-5.05-2.19-10.47-3.26-15.81-4.5l-1-1c-9-1.69-17.99-3.38-27-5zm-48 96c-1.51 3.03-4.37 3.16-7.5 4.21-2.16.68-4.3 1.27-6.5 1.79-6.45 1.56-12.37 3.41-18 7l-2.36.91c-6.12 2.53-11.59 6.86-16.64 11.09l-2-1 5-5c.47-.56.95-1.11 1.44-1.69 2.25-1.89 4.77-2.42 7.56-3.31 1.69-.95 3.36-1.96 5-3 7.07-4.19 13.6-7.14 21.77-8.47C676.47 144 676.47 144 678 144"/><path fill="#3C8D7E" d="M818 274h1c0 18 0 18-3 23l4 1-1 3h-2v-2h-2c-.12.6-.25 1.2-.38 1.81C814 303 814 303 812 306h-2c0-5 0-5 2-7 1.9-7.97 3.62-15.93 5-24z"/><path fill="#46bfaf" d="M698.25 44.688h3.6c8.39.1 16.09.81 24.15 3.31v1c-7.11.22-13.91-.05-20.94-1.12-6.57-.97-12.27-.57-18.84.61-4.43.71-8.75.7-13.22.51 5.7-5.69 17.77-4.34 25.25-4.31M719 144c8.18.64 17.11 2.41 24 7 .89.29 1.77.58 2.69.88 4.81 1.63 9.68 3.49 13.31 7.12 1.65.71 3.32 1.38 5 2v2c.83.33.83.33 5 2l3 4c-4.79-2.25-9.15-5.2-13.61-8.03-3.42-1.98-6.74-3.49-10.39-4.97v-2l-10-2-2-2c-.98-.2-1.95-.41-2.96-.62l-3.85-.82c-1.27-.26-2.53-.53-3.83-.81C722 147 722 147 719 146zM266 388c0 3 0 3-2 6h-2l-1 3c-.48.4-.96.8-1.46 1.21-.63.53-1.26 1.06-1.92 1.6-.62.52-1.25 1.05-1.89 1.58C254 403 254 403 252 406h-2l-1 3c-.45.36-.89.73-1.36 1.1-4.04 3.37-7.33 6.81-10.64 10.9-1.63 1.71-3.31 3.35-5 5h-2l-1 3-7 6-2-1 4-2c.2-.53.41-1.06.62-1.61 1.98-3.42 4.68-5.9 7.5-8.64.29-.28.29-.28 1.71-1.68 4.14-4.07 4.14-4.07 6.17-4.07l2-4h2l2-4h2l2-4h2l2-4h2l2-4h2c.25-.58.5-1.15.75-1.75 1.42-2.55 3.13-4.27 5.25-6.25M596 72v2c-6.62 4-6.62 4-10 4l-1 3c-.7.44-1.4.87-2.12 1.32-9.5 5.96-18.16 12.64-26.88 19.68l-3-1c34.83-29 34.83-29 43-29M250 720c.51.4 1.02.8 1.54 1.21 4 3.08 7.83 5.71 12.46 7.79l1 2c.66.33 1.33.65 2.01.99 7.52 3.72 7.52 3.72 10.61 5.63 2.16 1.25 4.11 2.05 6.44 2.88 3.08 1.1 5.45 2.32 7.94 4.5-.33.16-.33.16-2 1-.59-.27-1.18-.53-1.79-.8-6.75-3.02-6.75-3.02-9.77-4.2-3.58-1.47-7-3.24-10.44-5v-2c-.43-.12-.43-.12-2.62-.75-3.56-1.32-6.3-3.05-9.38-5.25v-2l-4-1zm-22-152 1 2c-.22.18-.22.18-1.31 1.06-1.87 2.15-2.83 4.31-3.87 6.93-.87 2.13-1.84 4.18-2.82 6.26-1.94 4.31-3.16 8.68-4.29 13.27-.71 2.48-.71 2.48-1.76 4.54-1.04 2.13-1.34 3.84-1.57 6.19-.13 1.24-.25 2.48-.38 3.75-.33.16-.33.16-2 1-.19-5.53.23-9.7 2-15 .15-.47.15-.47.88-2.82 3.03-9.51 6.92-19.98 14.12-27.18m-8 114c3 1 3 1 4.47 3.68 3.9 7.01 7.99 13.62 12.87 20.02 1.48 2.04 2.61 4.01 3.66 6.3l4 2v2l4 2 1 3c-3.59-1.49-5.56-3.5-8.06-6.44-2.24-2.61-4.47-5.16-6.94-7.56v-2l-3-1c-12-18.81-12-18.81-12-22m592-452h2c4.04 14.74 4.25 28.81 4 44-.33.17-.33.17-2 1-.01-.68-.03-1.37-.04-2.07-.57-23.85-.57-23.85-3.34-34.16-.67-3-.72-5.71-.62-8.77M292 744c7.4.75 7.4.75 10.44 2 7.03 2.75 15.65 2.26 23.12 2.56 1.01.05 2.02.09 3.06.13 2.46.11 4.92.21 7.38.31l-1 2c-9.27.2-18.45.16-27.69-.81-.73-.07-1.46-.14-2.21-.21-4.85-.57-8.69-1.87-13.1-3.98zM634 56v2c-2.76 1.17-5.41 2.11-8.31 2.88-2.94.89-5.15 1.82-7.81 3.24-3.11 1.63-5.31 2.33-8.88 1.88l-1 3-7 1v2l-5 1c3.07-3.44 5.73-5.6 10.05-7.25 2.16-.83 4.23-1.78 6.33-2.75 3.82-1.71 7.67-3.07 11.67-4.29C631.47 56 631.47 56 634 56M164 771c4.82 1.17 6.94 4 9.97 7.64 3.75 4.36 7.93 8.32 12.03 12.36l2.11 2.23C190 795 190 795 193 796l3 5c-4-1-4-1-6.13-3.16-2.83-2.83-5.78-5.53-8.75-8.22C168.1 777.73 168.1 777.73 164 771m555-626h-41c8.2-5.47 33.03-5.31 41 0"/><path fill="#46bfaf" d="m673 48-1 2c-.38.05-.38.05-2.32.33-6.25.93-12.48 1.96-18.68 3.17l-3.69.72c-2.94.69-5.52 1.64-8.31 2.78-2.81.12-2.81.12-5 0 4.44-3.62 8.76-5.1 14.38-6 3.17-.53 5.99-1.12 9.06-2.12 5.18-1.28 10.25-1.04 15.56-.88m111 16c5 1 5 1 7 3 1.66.68 3.33 1.35 5 2 6.43 3.03 12.41 6.51 18.25 10.56l2.64 1.82C819 83 819 83 820 85c-3.26-.62-5.37-1.77-8.06-3.69-4.36-3-8.88-5.54-13.56-8.01C796 72 796 72 793 70l-3-1c-3-1-3-1-6-3zM448 808h2c-4.26 8.51-17.14 13.11-25.5 17.25C421 827 421 827 418 829l-4-1c3.57-2.52 6.88-4.44 10.95-6.09 5.92-2.63 11.53-6.01 17.11-9.29C445 811 445 811 447 811zM298 356l1 2-3 4h-2l-1 3c-.48.4-.96.8-1.46 1.21-.63.53-1.26 1.06-1.92 1.6-.62.52-1.25 1.05-1.89 1.58C286 371 286 371 284 374h-2l-1 3c-.45.36-.89.73-1.36 1.1-4.03 3.35-7.4 6.78-10.64 10.9l-2-1 3-4h2c.25-.58.5-1.15.75-1.75 1.42-2.55 3.13-4.27 5.25-6.25h2l2-4h2l2-4h2l2-4h2c.25-.58.5-1.15.75-1.75 1.42-2.55 3.13-4.27 5.25-6.25"/><path fill="#3C8D7E" d="M663 143h8v2c-2.96 1.97-4.35 2.38-7.75 2.94-4.47.82-8.16 2.1-12.25 4.06v-3c6-4 6-4 12-4z"/><path fill="#46bfaf" d="M196 800c1.73 1.08 3.46 2.16 5.19 3.25.96.6 1.92 1.21 2.92 1.83 2.77 1.84 5.31 3.82 7.89 5.92 3.22 2.1 6.4 3.66 10 5l1 2 4 2-3 1c-4.66-2.58-9.1-5.36-13.51-8.34-4.45-2.97-8.97-5.81-13.49-8.66z"/></svg>